<svg enable-background="new 0 0 378.311 378.311" height="378.311" viewBox="0 0 378.311 378.311" width="378.311" xmlns="http://www.w3.org/2000/svg"><path d="m189.156 0c-104.298 0-189.155 84.858-189.155 189.155 0 104.298 84.857 189.155 189.155 189.155 104.304 0 189.154-84.857 189.154-189.155 0-104.297-84.85-189.155-189.154-189.155zm0 347.144c-87.117 0-157.988-70.87-157.988-157.988 0-87.115 70.871-157.988 157.988-157.988s157.986 70.873 157.986 157.988c0 87.117-70.87 157.988-157.986 157.988z"/><path d="m204.739 182.963v-107.122c0-8.606-6.977-15.584-15.583-15.584-8.605 0-15.582 6.978-15.582 15.584v113.314c0 4.839 2.25 9.101 5.703 11.962.146.176.245.373.397.546l58.438 66.354c3.082 3.49 7.381 5.279 11.701 5.279 3.652 0 7.33-1.276 10.289-3.888 6.461-5.692 7.084-15.537 1.398-21.998z"/></svg>