<svg viewBox="0 0 301 176.03" xmlns="http://www.w3.org/2000/svg">
	<g fill="#1d1d1b" stroke="#1d1d1b" stroke-miterlimit="10" stroke-width="10">
		<path d="m236.08 252.36-100.87 79.72c-2.52 2-6.82.59-6.82-2.22a2.84 2.84 0 0 1 1.17-2.25l95.21-75.25a2.71 2.71 0 0 0 0-4.47l-95.52-75.5a2.88 2.88 0 0 1 -1.17-2.23c0-2.82 4.3-4.24 6.83-2.24l101.17 80a2.71 2.71 0 0 1 0 4.44z" transform="translate(-101 -161.98)" />
		<path d="m263.92 252.36 100.87 79.72c2.52 2 6.82.59 6.82-2.22a2.84 2.84 0 0 0 -1.17-2.25l-95.21-75.25a2.71 2.71 0 0 1 0-4.47l95.52-75.5a2.88 2.88 0 0 0 1.17-2.23c0-2.82-4.3-4.24-6.83-2.24l-101.17 80a2.71 2.71 0 0 0 0 4.44z" transform="translate(-101 -161.98)" />
		<circle cx="30" cy="88.02" r="25" />
		<circle cx="271" cy="88.02" r="25" />
	</g>
</svg>
