<svg id="Icons_Real_estate_ic-real-estate-stairs" data-name="Icons / Real estate / ic-real-estate-stairs" xmlns="http://www.w3.org/2000/svg" width="24" height="24" viewBox="0 0 24 24">
  <rect id="Rectangle_347" data-name="Rectangle 347" width="24" height="24" fill="none"/>
  <g id="ic-real-estate-stairs" transform="translate(3.573 3.629)">
    <path id="Path_311" data-name="Path 311" d="M10.28,2.093,2.046,8.673a.185.185,0,0,0-.059.134L1.92,17A1.679,1.679,0,0,0,3.6,18.678l13.5.118a1.679,1.679,0,0,0,1.679-1.679V8.807a.176.176,0,0,0-.067-.134l-8.225-6.58A.151.151,0,0,0,10.28,2.093Z" transform="translate(-1.92 -2.054)" fill="none" stroke="#63d1a3" stroke-linecap="round" stroke-linejoin="round" stroke-width="1.5"/>
  </g>
  <path id="Path_359" data-name="Path 359" d="M6.321,6H.421C.189,6,0,5.91,0,5.8V.2C0,.09.189,0,.421,0h5.9" transform="translate(15 13.635) rotate(90)" fill="none" stroke="#63d1a3" stroke-linecap="round" stroke-linejoin="round" stroke-width="1.5"/>
</svg>
