<svg xmlns="http://www.w3.org/2000/svg" width="512" height="512" fill="none" viewBox="0 0 512 512">
	<path fill="#D2D3C9" d="M80 160V392C80 405.255 69.2548 416 56 416C42.7452 416 32 405.255 32 392V128C32 110.327 46.3269 96 64 96H448C465.673 96 480 110.327 480 128V392C480 405.255 469.255 416 456 416C442.745 416 432 405.255 432 392V160C432 151.163 424.837 144 416 144H96C87.1634 144 80 151.163 80 160Z" />
	<path fill="#F5F6E8" d="M80 160V392C80 405.255 69.2548 416 56 416C42.7452 416 32 405.255 32 392V128C32 110.327 46.3269 96 64 96H424C441.673 96 456 110.327 456 128V404C456 410.627 450.627 416 444 416C437.373 416 432 410.627 432 404V160C432 151.163 424.837 144 416 144H96C87.1634 144 80 151.163 80 160Z" />
	<path fill="#240000" fill-rule="evenodd" d="M24 128C24 105.909 41.9086 88 64 88H448C470.091 88 488 105.909 488 128V392C488 409.673 473.673 424 456 424C438.327 424 424 409.673 424 392V160C424 155.582 420.418 152 416 152H96C91.5817 152 88 155.582 88 160V392C88 409.673 73.6731 424 56 424C38.3269 424 24 409.673 24 392V128ZM64 104C50.7452 104 40 114.745 40 128V392C40 400.837 47.1634 408 56 408C64.8366 408 72 400.837 72 392V160C72 146.745 82.7452 136 96 136H416C429.255 136 440 146.745 440 160V392C440 400.837 447.163 408 456 408C464.837 408 472 400.837 472 392V128C472 114.745 461.255 104 448 104H64Z" clip-rule="evenodd" />
	<path fill="#240000" fill-rule="evenodd" d="M432 384H80V368H432V384Z" clip-rule="evenodd" />
	<path fill="#240000" fill-rule="evenodd" d="M370.438 381.752L130.438 149.752L141.558 138.248L381.558 370.248L370.438 381.752Z" clip-rule="evenodd" />
	<path fill="#240000" fill-rule="evenodd" d="M141.562 381.752L381.562 149.752L370.442 138.248L130.442 370.248L141.562 381.752Z" clip-rule="evenodd" />
	<path fill="#240000" fill-rule="evenodd" d="M242.436 381.752L72.7812 217.752 83.9016 206.248 253.557 370.248 242.436 381.752zM269.562 381.751L437.562 219.351 426.442 207.848 258.442 370.248 269.562 381.751z" clip-rule="evenodd" />
	<path fill="#240000" fill-rule="evenodd" d="M426.438 312.152L258.438 149.752 269.558 138.248 437.558 300.648 426.438 312.152zM85.5625 312.152L253.562 149.752 242.442 138.248 74.4421 300.648 85.5625 312.152z" clip-rule="evenodd" />
	<path fill="#fff" fill-rule="evenodd" d="M72 120C72 115.582 75.5817 112 80 112H200C204.418 112 208 115.582 208 120C208 124.418 204.418 128 200 128H80C75.5817 128 72 124.418 72 120Z" clip-rule="evenodd" />
</svg>
