<svg enable-background="new 0 0 575.616 575.616" height="575.616" viewBox="0 0 575.616 575.616" width="575.616" xmlns="http://www.w3.org/2000/svg"><path d="m429.248 141.439c0-78.109-63.263-141.439-141.44-141.439-78.109 0-141.439 63.33-141.439 141.439 0 78.11 63.33 141.439 141.439 141.439 78.18 0 141.44-63.329 141.44-141.439zm-247.521 3.06s-4.079-40.12 24.82-70.72c20.34 20.389 81.261 70.72 187.342 70.72 0 58.498-47.586 106.081-106.081 106.081s-106.081-47.586-106.081-106.081z"/><path d="m45.049 391.68v62.559 80.919c0 22.365 18.136 40.459 40.459 40.459h404.6c22.365 0 40.459-18.097 40.459-40.459v-80.919-62.559c0-44.688-36.193-80.919-80.919-80.919h-71.738c-5.07 0-11.46 3.422-14.271 7.639l-70.735 99.982c-2.812 4.22-7.372 4.22-10.184 0l-70.738-99.986c-2.812-4.22-9.202-7.638-14.272-7.638h-71.742c-44.649 0-80.919 36.233-80.919 80.922z"/></svg>