<?xml version="1.0" encoding="utf-8"?>
<!-- Generator: Adobe Illustrator 24.3.0, SVG Export Plug-In . SVG Version: 6.00 Build 0)  -->
<svg version="1.1" xmlns="http://www.w3.org/2000/svg" xmlns:xlink="http://www.w3.org/1999/xlink" x="0px" y="0px"
	 viewBox="0 0 750 500" style="enable-background:new 0 0 750 500;" xml:space="preserve">
<style type="text/css">
	.st0{display:none;}
	.st1{display:inline;opacity:0.07;fill:#9681AD;}
	.st2{display:none;opacity:0.4;fill:url(#SVGID_1_);}
	.st3{fill:#003DB5;}
	.st4{fill:none;stroke:#003DB5;stroke-width:0.9008;stroke-miterlimit:10;}
	.st5{opacity:0.22;fill:#003DB5;}
	.st6{fill:#0D2A6E;}
	.st7{fill:#003397;}
	.st8{fill:#C732FC;}
	.st9{opacity:0.07;fill:#FFFFFF;stroke:#FFFFFF;stroke-width:3.5897;stroke-miterlimit:10;}
	.st10{fill:none;stroke:#FFFFFF;stroke-width:1.5954;stroke-linecap:round;stroke-linejoin:round;stroke-miterlimit:10;}
	.st11{fill:#5DCCFE;}
	.st12{fill:#216BFE;}
	.st13{fill:none;stroke:#FFFFFF;stroke-width:0.9637;stroke-linecap:round;stroke-linejoin:round;stroke-miterlimit:10;}
	.st14{fill:#FFFFFF;}
	.st15{fill:#FDAF33;}
	.st16{display:none;opacity:0.64;fill:url(#SVGID_2_);}
	.st17{display:inline;}
	.st18{fill:#685858;}
	.st19{display:inline;fill:#C732FC;}
	.st20{fill:#112129;}
</style>
<g id="BACKGROUND" class="st0">
	<rect class="st1" width="750" height="500"/>
</g>
<g id="OBJECTS">
	<linearGradient id="SVGID_1_" gradientUnits="userSpaceOnUse" x1="375" y1="591.391" x2="375" y2="49.921">
		<stop  offset="0" style="stop-color:#FFDE00"/>
		<stop  offset="0.1329" style="stop-color:#FEDB04;stop-opacity:0.8671"/>
		<stop  offset="0.2659" style="stop-color:#FAD310;stop-opacity:0.7341"/>
		<stop  offset="0.3991" style="stop-color:#F5C524;stop-opacity:0.6009"/>
		<stop  offset="0.5324" style="stop-color:#EDB140;stop-opacity:0.4676"/>
		<stop  offset="0.6659" style="stop-color:#E29865;stop-opacity:0.3341"/>
		<stop  offset="0.7997" style="stop-color:#D57891;stop-opacity:0.2003"/>
		<stop  offset="0.931" style="stop-color:#C754C5;stop-opacity:0.069"/>
		<stop  offset="1" style="stop-color:#BE3FE3;stop-opacity:0"/>
	</linearGradient>
	<polygon class="st2" points="477.04,500 713.47,0 36.53,0 288,500 	"/>
	<g>
		<g>
			<path class="st3" d="M339.08,113.73c0,0,35.9,154.44-71.54,284.27l-222.39,5.58c-21.55,0.54-39.31-16.78-39.31-38.34V152.08
				c0-21.18,17.17-38.35,38.35-38.35H339.08z"/>
		</g>
		<g>
			
				<ellipse transform="matrix(0.2367 -0.9716 0.9716 0.2367 -59.0215 408.2301)" class="st4" cx="230.3" cy="241.68" rx="234.06" ry="120.91"/>
			<path class="st3" d="M290.08,13.61"/>
			<path class="st5" d="M290.32,261.44c31.63-103.4,13.98-200.46-39.43-216.81c-0.03-0.01-0.06-0.02-0.09-0.03
				c-2.04-0.62-1.88-3.57,0.23-3.89c8.52-1.27,16.87-0.77,24.87,1.67c53.41,16.34,71.07,113.41,39.43,216.81
				c-10.14,33.15-24.12,62.92-40.19,87.54c-7.15,10.95-23.62,0.61-17.04-10.69C270.83,314.19,281.9,288.98,290.32,261.44z"/>
			<path class="st3" d="M174.9,469.08c64.88,15.81,142.27-73.19,172.87-198.79s2.81-240.22-62.07-256.02
				c-5.98-1.46-12.06-2.02-18.21-1.75l0,0c0,0,112.2-7.41,145.51,86.27c0,0,57.02,144.91-53.11,307.67c0,0-53.99,81.73-117.41,81.14
				c0,0-52.04,0.36-90.85-29.44C158.74,463.33,166.51,467.04,174.9,469.08z"/>
			
				<ellipse transform="matrix(0.3146 -0.9492 0.9492 0.3146 -10.5677 556.4435)" class="st6" cx="380.04" cy="285.54" rx="34.64" ry="19.28"/>
			<path class="st7" d="M375.46,276.04c3.61-10.62,14.79-16.97,25.62-14.08c0.08,0.02,0.16,0.04,0.23,0.06l201.82,55.58
				c0.32,0.09,0.63,0.18,0.94,0.28c1.67,0.54,2.62,2.29,2.12,3.97l-14.25,48.16c-0.48,1.64-2.18,2.65-3.83,2.2
				c-0.01,0-0.02-0.01-0.03-0.01l-201.82-55.58c-0.09-0.02-0.18-0.05-0.27-0.08c-12.13-3.47-18.66-16.66-14.6-28.6L375.46,276.04z"
				/>
			
				<ellipse transform="matrix(0.3146 -0.9492 0.9492 0.3146 82.6426 807.6971)" class="st8" cx="600.63" cy="346.62" rx="29" ry="16.14"/>
			
				<ellipse transform="matrix(0.2367 -0.9716 0.9716 0.2367 -59.78 409.1931)" class="st9" cx="230.54" cy="242.64" rx="233.17" ry="120.45"/>
		</g>
		<line class="st10" x1="175.33" y1="176.68" x2="40.43" y2="176.68"/>
		<line class="st10" x1="175.33" y1="195.12" x2="40.43" y2="195.12"/>
		<line class="st10" x1="175.33" y1="213.55" x2="40.43" y2="213.55"/>
		<line class="st10" x1="175.33" y1="231.99" x2="40.43" y2="231.99"/>
		<line class="st10" x1="174.68" y1="250.42" x2="39.78" y2="250.42"/>
		<path class="st11" d="M511.15,205.15h73.91c2.9,0,5.25-2.35,5.25-5.25v-8.36c0-2.9-2.35-5.25-5.25-5.25h-73.91
			c-2.9,0-5.25,2.35-5.25,5.25v8.36C505.9,202.8,508.25,205.15,511.15,205.15z"/>
		<path class="st3" d="M457.71,134.25h73.91c2.9,0,5.25-2.35,5.25-5.25v-8.36c0-2.9-2.35-5.25-5.25-5.25h-73.91
			c-2.9,0-5.25,2.35-5.25,5.25V129C452.46,131.9,454.81,134.25,457.71,134.25z"/>
		<path class="st8" d="M480.26,237.96h258.66c2.9,0,5.25-2.35,5.25-5.25v-8.36c0-2.9-2.35-5.25-5.25-5.25H480.26
			c-2.9,0-5.25,2.35-5.25,5.25v8.36C475.01,235.61,477.36,237.96,480.26,237.96z"/>
		<path class="st12" d="M447.62,174.42h188.45c2.48,0,4.5-2.01,4.5-4.5v-9.86c0-2.48-2.01-4.5-4.5-4.5H447.62
			c-2.48,0-4.5,2.01-4.5,4.5v9.86C443.12,172.4,445.14,174.42,447.62,174.42z"/>
		<line class="st13" x1="627.81" y1="164.99" x2="546.33" y2="164.99"/>
		<line class="st13" x1="525.62" y1="164.99" x2="461.3" y2="164.99"/>
		<line class="st13" x1="526.83" y1="124.83" x2="462.51" y2="124.83"/>
		<line class="st13" x1="735.36" y1="228.54" x2="671.03" y2="228.54"/>
		<line class="st13" x1="580.27" y1="195.72" x2="515.94" y2="195.72"/>
		<line class="st13" x1="659.4" y1="228.54" x2="612.91" y2="228.54"/>
		<line class="st13" x1="560.19" y1="228.54" x2="484.63" y2="228.54"/>
		<line class="st13" x1="605.67" y1="228.54" x2="575.03" y2="228.54"/>
		<path class="st11" d="M205.46,259.48h73.19c6.38,0,11.55-5.17,11.55-11.55v-73.19c0-6.38-5.17-11.55-11.55-11.55h-73.19
			c-6.38,0-11.55,5.17-11.55,11.55v73.19C193.9,254.31,199.08,259.48,205.46,259.48z"/>
		<path class="st8" d="M45.4,317.12h239.33c2.74,0,4.97-2.23,4.97-4.97v-21.64c0-2.74-2.23-4.97-4.97-4.97H45.4
			c-2.74,0-4.97,2.23-4.97,4.97v21.64C40.43,314.89,42.66,317.12,45.4,317.12z"/>
		<path class="st14" d="M255.12,200.54c-3.15-3.15-7.32-4.61-11.45-4.44v-12.75c7.38-0.17,14.82,2.55,20.45,8.18
			c10.93,10.93,10.93,28.66,0,39.59c-5.63,5.63-13.07,8.36-20.45,8.18v-12.75c4.12,0.18,8.3-1.29,11.45-4.44
			C261.08,216.16,261.08,206.5,255.12,200.54z"/>
		<path class="st15" d="M229.11,210.62c-0.19,4.14,1.27,8.34,4.43,11.5c2.81,2.81,6.45,4.28,10.13,4.44v12.75
			c-6.94-0.16-13.84-2.88-19.14-8.18c-5.65-5.65-8.37-13.11-8.18-20.5H229.11z"/>
		<path class="st8" d="M224.54,191.53c5.3-5.3,12.19-8.02,19.14-8.18v12.75c-3.68,0.16-7.32,1.63-10.13,4.44
			c-2.8,2.8-4.27,6.41-4.43,10.08h-12.75C216.53,203.69,219.25,196.82,224.54,191.53z"/>
	</g>
	<linearGradient id="SVGID_2_" gradientUnits="userSpaceOnUse" x1="375" y1="-61.1965" x2="375" y2="419.051">
		<stop  offset="0" style="stop-color:#39DD93"/>
		<stop  offset="1" style="stop-color:#1378BB;stop-opacity:0"/>
	</linearGradient>
	<polygon class="st16" points="733.28,500 16.72,500 301.59,0 440.33,0 	"/>
	<g class="st0">
		<g class="st17">
			<g>
				<g>
					<path class="st3" d="M52.71,153.7h15.44v3.81H57.25v7.24h9.29v3.81h-9.29v10.66h-4.53V153.7z"/>
					<path class="st3" d="M71.73,154.15c0-1.51,1.19-2.54,2.78-2.54s2.78,1.03,2.78,2.54c0,1.48-1.19,2.54-2.78,2.54
						S71.73,155.64,71.73,154.15z M72.25,160.05h4.5v19.17h-4.5V160.05z"/>
					<path class="st3" d="M82.49,174.29v-22.64h4.5v22.87c0,1.11,0.5,1.5,0.97,1.5c0.2,0,0.36,0,0.7-0.08l0.56,3.36
						c-0.55,0.22-1.3,0.39-2.38,0.39C83.66,179.69,82.49,177.63,82.49,174.29z"/>
					<path class="st3" d="M91.81,169.66c0-6.23,4.33-10.07,8.85-10.07c5.19,0,7.93,3.75,7.93,9.1c0,0.86-0.09,1.72-0.2,2.19H96.2
						c0.38,3.4,2.56,5.34,5.66,5.34c1.64,0,3.05-0.52,4.46-1.39l1.53,2.79c-1.83,1.23-4.14,2.08-6.58,2.08
						C95.97,179.69,91.81,175.98,91.81,169.66z M104.69,167.81c0-2.95-1.31-4.75-3.94-4.75c-2.23,0-4.2,1.67-4.6,4.75H104.69z"/>
					<path class="st3" d="M50.96,214.79l2.64-3.11c1.83,1.74,4.28,2.91,6.66,2.91c2.88,0,4.45-1.3,4.45-3.29
						c0-2.1-1.65-2.77-3.97-3.75l-3.49-1.51c-2.52-1.05-5.17-3.04-5.17-6.77c0-4.07,3.6-7.2,8.58-7.2c2.99,0,5.88,1.23,7.88,3.25
						l-2.33,2.87c-1.63-1.38-3.36-2.19-5.55-2.19c-2.42,0-4,1.13-4,3c0,2.01,1.95,2.75,4.06,3.61l3.45,1.44
						c3.04,1.26,5.17,3.19,5.17,6.89c0,4.14-3.44,7.59-9.18,7.59C56.71,218.53,53.38,217.18,50.96,214.79z"/>
					<path class="st3" d="M72.35,208.49c0-6.23,4.33-10.07,8.85-10.07c5.19,0,7.93,3.75,7.93,9.1c0,0.86-0.09,1.72-0.2,2.19H76.74
						c0.38,3.4,2.56,5.34,5.66,5.34c1.64,0,3.05-0.52,4.46-1.39l1.53,2.79c-1.83,1.23-4.14,2.08-6.58,2.08
						C76.51,218.53,72.35,214.82,72.35,208.49z M85.23,206.65c0-2.95-1.31-4.75-3.94-4.75c-2.23,0-4.2,1.67-4.6,4.75H85.23z"/>
					<path class="st3" d="M92.4,212.91c0-4.11,3.41-6.25,11.29-7.09c-0.06-2.06-0.89-3.78-3.49-3.78c-1.91,0-3.7,0.86-5.39,1.89
						l-1.66-3c2.11-1.33,4.83-2.51,7.88-2.51c4.8,0,7.16,2.95,7.16,8.29v11.35h-3.69l-0.34-2.12h-0.12
						c-1.72,1.47-3.69,2.59-5.96,2.59C94.71,218.53,92.4,216.25,92.4,212.91z M103.68,212.93v-4.31c-5.21,0.66-6.94,2.01-6.94,3.95
						c0,1.69,1.16,2.44,2.77,2.44C101.07,215.01,102.26,214.24,103.68,212.93z"/>
					<path class="st3" d="M113.59,198.89h3.69l0.34,3.42h0.12c1.37-2.5,3.4-3.89,5.46-3.89c0.98,0,1.59,0.12,2.17,0.39l-0.78,3.9
						c-0.67-0.19-1.17-0.31-1.97-0.31c-1.53,0-3.38,1.05-4.53,3.97v11.69h-4.5V198.89z"/>
					<path class="st3" d="M126.9,208.49c0-6.39,4.52-10.07,9.63-10.07c2.44,0,4.22,0.94,5.61,2.15l-2.19,2.92
						c-1.02-0.89-1.99-1.4-3.19-1.4c-3.09,0-5.24,2.56-5.24,6.4c0,3.84,2.11,6.37,5.1,6.37c1.5,0,2.88-0.73,3.97-1.65l1.83,2.97
						c-1.8,1.59-4.08,2.36-6.27,2.36C130.91,218.53,126.9,214.85,126.9,208.49z"/>
					<path class="st3" d="M146.21,190.49h4.5v7.14l-0.19,3.7c1.61-1.51,3.52-2.9,6.14-2.9c4.11,0,5.91,2.78,5.91,7.62v12.02h-4.5
						v-11.44c0-3.15-0.91-4.34-2.99-4.34c-1.69,0-2.8,0.83-4.38,2.39v13.4h-4.5V190.49z"/>
					<path class="st3" d="M167.5,192.99c0-1.51,1.19-2.54,2.78-2.54s2.78,1.03,2.78,2.54c0,1.48-1.19,2.54-2.78,2.54
						S167.5,194.47,167.5,192.99z M168.02,198.89h4.5v19.17h-4.5V198.89z"/>
					<path class="st3" d="M178.25,198.89h3.69l0.34,2.59h0.12c1.72-1.67,3.67-3.06,6.3-3.06c4.11,0,5.91,2.78,5.91,7.62v12.02h-4.5
						v-11.44c0-3.15-0.91-4.34-2.99-4.34c-1.69,0-2.8,0.83-4.38,2.39v13.4h-4.5V198.89z"/>
					<path class="st3" d="M198.82,221.55c0-1.62,1-3.03,2.77-4.09v-0.16c-0.98-0.64-1.73-1.65-1.73-3.2c0-1.48,1.02-2.79,2.13-3.58
						v-0.16c-1.31-0.97-2.53-2.79-2.53-5.06c0-4.4,3.56-6.89,7.58-6.89c1.06,0,2.06,0.19,2.84,0.47h6.86v3.34h-3.5
						c0.62,0.72,1.09,1.9,1.09,3.22c0,4.26-3.24,6.54-7.3,6.54c-0.81,0-1.74-0.17-2.59-0.51c-0.58,0.49-0.94,0.98-0.94,1.83
						c0,1.08,0.78,1.73,3.11,1.73h3.42c4.59,0,7.03,1.42,7.03,4.73c0,3.78-3.97,6.76-10.24,6.76
						C202.23,226.54,198.82,224.9,198.82,221.55z M212.7,220.52c0-1.48-1.19-1.92-3.38-1.92h-2.63c-1.03,0-1.86-0.08-2.6-0.27
						c-1.03,0.78-1.48,1.64-1.48,2.53c0,1.75,1.88,2.76,4.89,2.76C210.59,223.62,212.7,222.17,212.7,220.52z M210.36,205.31
						c0-2.4-1.45-3.78-3.33-3.78c-1.88,0-3.33,1.36-3.33,3.78c0,2.44,1.48,3.86,3.33,3.86
						C208.87,209.17,210.36,207.75,210.36,205.31z"/>
				</g>
			</g>
		</g>
		<g class="st17">
			<g>
				<path class="st18" d="M50.43,244.29h0.46v6.19h3.03v0.4h-3.49V244.29z"/>
				<path class="st18" d="M54.65,248.49c0-1.61,1-2.53,2.15-2.53s2.15,0.92,2.15,2.53c0,1.59-1,2.51-2.15,2.51
					S54.65,250.08,54.65,248.49z M58.49,248.49c0-1.26-0.72-2.14-1.69-2.14c-0.97,0-1.69,0.88-1.69,2.14c0,1.26,0.72,2.12,1.69,2.12
					C57.77,250.61,58.49,249.75,58.49,248.49z"/>
				<path class="st18" d="M60.4,246.08h0.37l0.05,0.9h0.02c0.32-0.59,0.79-1.02,1.37-1.02c0.17,0,0.32,0.02,0.48,0.1l-0.1,0.4
					c-0.16-0.06-0.25-0.08-0.43-0.08c-0.43,0-0.94,0.33-1.31,1.24v3.26H60.4V246.08z"/>
				<path class="st18" d="M63.17,248.49c0-1.57,1.02-2.53,2.09-2.53c1.14,0,1.84,0.81,1.84,2.22c0,0.12,0,0.24-0.03,0.36h-3.45
					c0.02,1.21,0.73,2.08,1.81,2.08c0.52,0,0.93-0.17,1.29-0.43l0.18,0.34c-0.38,0.24-0.81,0.47-1.51,0.47
					C64.16,251,63.17,250.06,63.17,248.49z M66.68,248.18c0-1.22-0.56-1.83-1.42-1.83c-0.81,0-1.55,0.69-1.65,1.83H66.68z"/>
				<path class="st18" d="M68.4,246.08h0.37l0.05,0.75h0.02c0.44-0.49,0.98-0.87,1.52-0.87c0.77,0,1.15,0.39,1.33,0.98
					c0.54-0.6,1.08-0.98,1.63-0.98c0.96,0,1.44,0.6,1.44,1.84v3.08h-0.44v-3.02c0-1.02-0.34-1.5-1.08-1.5c-0.45,0-0.91,0.3-1.44,0.9
					v3.62h-0.44v-3.02c0-1.02-0.34-1.5-1.08-1.5c-0.43,0-0.91,0.3-1.44,0.9v3.62H68.4V246.08z"/>
				<path class="st18" d="M78.35,244.53c0-0.25,0.18-0.39,0.4-0.39s0.4,0.14,0.4,0.39c0,0.23-0.18,0.39-0.4,0.39
					S78.35,244.76,78.35,244.53z M78.52,246.08h0.44v4.8h-0.44V246.08z"/>
				<path class="st18" d="M80.81,246.08h0.37l0.05,0.6h0.02c0.47-0.38,1.04-0.72,1.63-0.72c1.29,0,1.92,0.96,1.92,2.45
					c0,1.63-0.98,2.59-2.11,2.59c-0.46,0-0.94-0.22-1.44-0.59l0.01,0.89v1.76h-0.44V246.08z M84.34,248.41
					c0-1.18-0.42-2.06-1.53-2.06c-0.48,0-0.98,0.28-1.56,0.79v2.85c0.54,0.45,1.05,0.62,1.41,0.62
					C83.64,250.61,84.34,249.71,84.34,248.41z"/>
				<path class="st18" d="M85.65,250.34l0.26-0.32c0.41,0.34,0.84,0.61,1.53,0.61c0.76,0,1.15-0.44,1.15-0.95
					c0-0.6-0.62-0.87-1.18-1.07c-0.72-0.26-1.53-0.55-1.53-1.37c0-0.69,0.55-1.28,1.55-1.28c0.51,0,1.02,0.21,1.37,0.5l-0.24,0.32
					c-0.32-0.24-0.66-0.44-1.15-0.44c-0.75,0-1.09,0.43-1.09,0.87c0,0.55,0.57,0.75,1.14,0.97c0.74,0.28,1.57,0.53,1.57,1.46
					c0,0.72-0.58,1.35-1.62,1.35C86.7,251,86.08,250.7,85.65,250.34z"/>
				<path class="st18" d="M90.23,249.16v-3.08h0.44v3.02c0,1.02,0.32,1.5,1.09,1.5c0.57,0,0.99-0.3,1.55-0.98v-3.54h0.44v4.8h-0.37
					l-0.05-0.8h-0.02c-0.47,0.55-0.97,0.92-1.63,0.92C90.69,251,90.23,250.4,90.23,249.16z"/>
				<path class="st18" d="M95.59,246.08h0.37l0.05,0.75h0.02c0.44-0.49,0.98-0.87,1.52-0.87c0.77,0,1.15,0.39,1.33,0.98
					c0.54-0.6,1.08-0.98,1.63-0.98c0.96,0,1.44,0.6,1.44,1.84v3.08h-0.44v-3.02c0-1.02-0.34-1.5-1.08-1.5c-0.45,0-0.91,0.3-1.44,0.9
					v3.62h-0.44v-3.02c0-1.02-0.34-1.5-1.08-1.5c-0.43,0-0.91,0.3-1.44,0.9v3.62h-0.44V246.08z"/>
				<path class="st18" d="M105.31,248.49c0-1.55,0.98-2.53,2.13-2.53c0.58,0,0.97,0.22,1.45,0.59l-0.02-0.88v-1.98h0.44v7.19h-0.37
					l-0.05-0.62h-0.02c-0.39,0.39-0.93,0.74-1.56,0.74C106.09,251,105.31,250.11,105.31,248.49z M108.86,249.82v-2.85
					c-0.51-0.45-0.93-0.62-1.4-0.62c-0.95,0-1.69,0.93-1.69,2.13c0,1.28,0.57,2.12,1.59,2.12
					C107.89,250.61,108.36,250.33,108.86,249.82z"/>
				<path class="st18" d="M110.75,248.49c0-1.61,1-2.53,2.15-2.53s2.15,0.92,2.15,2.53c0,1.59-1,2.51-2.15,2.51
					S110.75,250.08,110.75,248.49z M114.59,248.49c0-1.26-0.72-2.14-1.69-2.14c-0.97,0-1.69,0.88-1.69,2.14
					c0,1.26,0.72,2.12,1.69,2.12C113.87,250.61,114.59,249.75,114.59,248.49z"/>
				<path class="st18" d="M116.5,250.24v-6.55h0.44v6.61c0,0.21,0.09,0.31,0.21,0.31c0.04,0,0.08,0,0.18-0.02l0.07,0.36
					c-0.09,0.03-0.17,0.05-0.32,0.05C116.7,251,116.5,250.76,116.5,250.24z"/>
				<path class="st18" d="M118.47,248.49c0-1.61,1-2.53,2.15-2.53s2.15,0.92,2.15,2.53c0,1.59-1,2.51-2.15,2.51
					S118.47,250.08,118.47,248.49z M122.31,248.49c0-1.26-0.72-2.14-1.69-2.14c-0.97,0-1.69,0.88-1.69,2.14
					c0,1.26,0.72,2.12,1.69,2.12C121.59,250.61,122.31,249.75,122.31,248.49z"/>
				<path class="st18" d="M124.22,246.08h0.37l0.05,0.9h0.02c0.32-0.59,0.79-1.02,1.37-1.02c0.17,0,0.32,0.02,0.48,0.1l-0.1,0.4
					c-0.16-0.06-0.25-0.08-0.43-0.08c-0.43,0-0.94,0.33-1.31,1.24v3.26h-0.44V246.08z"/>
				<path class="st18" d="M128.79,250.34l0.26-0.32c0.41,0.34,0.84,0.61,1.53,0.61c0.76,0,1.15-0.44,1.15-0.95
					c0-0.6-0.62-0.87-1.18-1.07c-0.72-0.26-1.53-0.55-1.53-1.37c0-0.69,0.55-1.28,1.55-1.28c0.51,0,1.02,0.21,1.37,0.5l-0.24,0.32
					c-0.32-0.24-0.66-0.44-1.15-0.44c-0.75,0-1.09,0.43-1.09,0.87c0,0.55,0.57,0.75,1.14,0.97c0.74,0.28,1.57,0.53,1.57,1.46
					c0,0.72-0.58,1.35-1.62,1.35C129.84,251,129.22,250.7,128.79,250.34z"/>
				<path class="st18" d="M133.27,244.53c0-0.25,0.18-0.39,0.4-0.39s0.4,0.14,0.4,0.39c0,0.23-0.18,0.39-0.4,0.39
					S133.27,244.76,133.27,244.53z M133.44,246.08h0.44v4.8h-0.44V246.08z"/>
				<path class="st18" d="M135.84,249.55v-3.09h-0.75v-0.34l0.76-0.04l0.06-1.39h0.38v1.39h1.39v0.39h-1.39v3.12
					c0,0.61,0.15,1.03,0.82,1.03c0.18,0,0.43-0.08,0.6-0.15l0.12,0.36c-0.28,0.1-0.58,0.18-0.78,0.18
					C136.11,251,135.84,250.41,135.84,249.55z"/>
				<path class="st18" d="M140.51,249.69c0-1.07,0.96-1.57,3.1-1.81c0.01-0.74-0.19-1.53-1.13-1.53c-0.65,0-1.21,0.32-1.53,0.56
					l-0.2-0.33c0.34-0.24,1.01-0.62,1.79-0.62c1.14,0,1.52,0.83,1.52,1.85v3.07h-0.37l-0.05-0.62h-0.02
					c-0.49,0.4-1.07,0.74-1.7,0.74C141.14,251,140.51,250.59,140.51,249.69z M143.6,249.84v-1.63c-1.97,0.23-2.64,0.69-2.64,1.45
					c0,0.69,0.47,0.95,1.02,0.95C142.53,250.62,143.01,250.35,143.6,249.84z"/>
				<path class="st18" d="M145.76,246.08h0.37l0.05,0.75h0.02c0.44-0.49,0.98-0.87,1.52-0.87c0.77,0,1.15,0.39,1.33,0.98
					c0.54-0.6,1.08-0.98,1.63-0.98c0.96,0,1.44,0.6,1.44,1.84v3.08h-0.44v-3.02c0-1.02-0.34-1.5-1.08-1.5c-0.45,0-0.91,0.3-1.44,0.9
					v3.62h-0.44v-3.02c0-1.02-0.34-1.5-1.08-1.5c-0.43,0-0.91,0.3-1.44,0.9v3.62h-0.44V246.08z"/>
				<path class="st18" d="M153.48,248.49c0-1.57,1.02-2.53,2.09-2.53c1.14,0,1.84,0.81,1.84,2.22c0,0.12,0,0.24-0.03,0.36h-3.45
					c0.02,1.21,0.73,2.08,1.81,2.08c0.52,0,0.93-0.17,1.29-0.43l0.18,0.34c-0.38,0.24-0.81,0.47-1.51,0.47
					C154.47,251,153.48,250.06,153.48,248.49z M156.99,248.18c0-1.22-0.56-1.83-1.42-1.83c-0.81,0-1.55,0.69-1.65,1.83H156.99z"/>
				<path class="st18" d="M158.83,249.55v-3.09h-0.75v-0.34l0.76-0.04l0.06-1.39h0.38v1.39h1.39v0.39h-1.39v3.12
					c0,0.61,0.15,1.03,0.82,1.03c0.18,0,0.43-0.08,0.6-0.15l0.12,0.36c-0.28,0.1-0.58,0.18-0.78,0.18
					C159.09,251,158.83,250.41,158.83,249.55z"/>
				<path class="st18" d="M161.39,252.13c0.46-0.24,0.77-0.67,0.77-1.24l-0.13-0.59l0.36,0.47c-0.09,0.14-0.22,0.16-0.35,0.16
					c-0.23,0-0.42-0.14-0.42-0.42c0-0.27,0.21-0.42,0.43-0.42c0.31,0,0.51,0.27,0.51,0.71c0,0.73-0.43,1.31-1.03,1.63L161.39,252.13
					z"/>
				<path class="st18" d="M165.62,248.49c0-1.61,1.03-2.53,2.19-2.53c0.65,0,1.08,0.29,1.41,0.59l-0.26,0.31
					c-0.31-0.29-0.67-0.51-1.14-0.51c-0.98,0-1.74,0.88-1.74,2.14c0,1.26,0.69,2.12,1.73,2.12c0.51,0,0.96-0.25,1.29-0.55l0.23,0.31
					c-0.41,0.37-0.92,0.63-1.53,0.63C166.56,251,165.62,250.08,165.62,248.49z"/>
				<path class="st18" d="M170.11,248.49c0-1.61,1-2.53,2.15-2.53s2.15,0.92,2.15,2.53c0,1.59-1,2.51-2.15,2.51
					S170.11,250.08,170.11,248.49z M173.96,248.49c0-1.26-0.72-2.14-1.69-2.14c-0.97,0-1.69,0.88-1.69,2.14
					c0,1.26,0.72,2.12,1.69,2.12C173.23,250.61,173.96,249.75,173.96,248.49z"/>
				<path class="st18" d="M175.86,246.08h0.37l0.05,0.74h0.02c0.49-0.49,0.99-0.86,1.65-0.86c0.99,0,1.45,0.6,1.45,1.84v3.08h-0.44
					v-3.02c0-1.02-0.32-1.5-1.09-1.5c-0.57,0-0.99,0.3-1.57,0.9v3.62h-0.44V246.08z"/>
				<path class="st18" d="M180.58,250.34l0.26-0.32c0.41,0.34,0.84,0.61,1.53,0.61c0.76,0,1.15-0.44,1.15-0.95
					c0-0.6-0.62-0.87-1.18-1.07c-0.72-0.26-1.53-0.55-1.53-1.37c0-0.69,0.55-1.28,1.55-1.28c0.51,0,1.02,0.21,1.37,0.5l-0.24,0.32
					c-0.32-0.24-0.66-0.44-1.15-0.44c-0.75,0-1.09,0.43-1.09,0.87c0,0.55,0.57,0.75,1.14,0.97c0.74,0.28,1.57,0.53,1.57,1.46
					c0,0.72-0.58,1.35-1.62,1.35C181.63,251,181.01,250.7,180.58,250.34z"/>
				<path class="st18" d="M184.83,248.49c0-1.57,1.02-2.53,2.09-2.53c1.14,0,1.84,0.81,1.84,2.22c0,0.12,0,0.24-0.03,0.36h-3.45
					c0.02,1.21,0.73,2.08,1.81,2.08c0.52,0,0.93-0.17,1.29-0.43l0.18,0.34c-0.38,0.24-0.81,0.47-1.51,0.47
					C185.82,251,184.83,250.06,184.83,248.49z M188.34,248.18c0-1.22-0.56-1.83-1.42-1.83c-0.81,0-1.55,0.69-1.65,1.83H188.34z"/>
				<path class="st18" d="M189.66,248.49c0-1.61,1.03-2.53,2.19-2.53c0.65,0,1.08,0.29,1.41,0.59l-0.26,0.31
					c-0.31-0.29-0.67-0.51-1.14-0.51c-0.98,0-1.74,0.88-1.74,2.14c0,1.26,0.69,2.12,1.73,2.12c0.51,0,0.96-0.25,1.29-0.55l0.23,0.31
					c-0.41,0.37-0.92,0.63-1.53,0.63C190.6,251,189.66,250.08,189.66,248.49z"/>
				<path class="st18" d="M194.66,249.55v-3.09h-0.75v-0.34l0.76-0.04l0.06-1.39h0.38v1.39h1.39v0.39h-1.39v3.12
					c0,0.61,0.15,1.03,0.82,1.03c0.18,0,0.43-0.08,0.6-0.15l0.12,0.36c-0.28,0.1-0.58,0.18-0.78,0.18
					C194.93,251,194.66,250.41,194.66,249.55z"/>
				<path class="st18" d="M197.27,248.49c0-1.57,1.02-2.53,2.09-2.53c1.14,0,1.84,0.81,1.84,2.22c0,0.12,0,0.24-0.03,0.36h-3.45
					c0.02,1.21,0.73,2.08,1.81,2.08c0.52,0,0.93-0.17,1.29-0.43l0.18,0.34c-0.38,0.24-0.81,0.47-1.51,0.47
					C198.26,251,197.27,250.06,197.27,248.49z M200.78,248.18c0-1.22-0.56-1.83-1.42-1.83c-0.81,0-1.55,0.69-1.65,1.83H200.78z"/>
				<path class="st18" d="M202.61,249.55v-3.09h-0.75v-0.34l0.76-0.04l0.06-1.39h0.38v1.39h1.39v0.39h-1.39v3.12
					c0,0.61,0.15,1.03,0.82,1.03c0.18,0,0.43-0.08,0.6-0.15l0.12,0.36c-0.28,0.1-0.58,0.18-0.78,0.18
					C202.88,251,202.61,250.41,202.61,249.55z"/>
				<path class="st18" d="M205.55,249.16v-3.08h0.44v3.02c0,1.02,0.32,1.5,1.09,1.5c0.57,0,0.99-0.3,1.55-0.98v-3.54h0.44v4.8h-0.37
					l-0.05-0.8h-0.02c-0.47,0.55-0.97,0.92-1.63,0.92C206.01,251,205.55,250.4,205.55,249.16z"/>
				<path class="st18" d="M210.51,248.49c0-1.57,1.02-2.53,2.09-2.53c1.14,0,1.84,0.81,1.84,2.22c0,0.12,0,0.24-0.03,0.36h-3.45
					c0.02,1.21,0.73,2.08,1.81,2.08c0.52,0,0.93-0.17,1.29-0.43l0.18,0.34c-0.38,0.24-0.81,0.47-1.51,0.47
					C211.5,251,210.51,250.06,210.51,248.49z M214.02,248.18c0-1.22-0.56-1.83-1.42-1.83c-0.81,0-1.55,0.69-1.65,1.83H214.02z"/>
				<path class="st18" d="M215.74,246.08h0.37l0.05,0.9h0.02c0.32-0.59,0.79-1.02,1.37-1.02c0.17,0,0.32,0.02,0.48,0.1l-0.1,0.4
					c-0.16-0.06-0.25-0.08-0.43-0.08c-0.43,0-0.94,0.33-1.31,1.24v3.26h-0.44V246.08z"/>
				<path class="st18" d="M50.04,264.52c0-1.07,0.96-1.57,3.1-1.81c0.01-0.74-0.19-1.53-1.13-1.53c-0.65,0-1.21,0.32-1.53,0.56
					l-0.2-0.33c0.34-0.24,1.01-0.62,1.79-0.62c1.14,0,1.52,0.83,1.52,1.85v3.07H53.2l-0.05-0.62h-0.02c-0.49,0.4-1.07,0.74-1.7,0.74
					C50.67,265.84,50.04,265.42,50.04,264.52z M53.13,264.68v-1.63c-1.97,0.23-2.64,0.69-2.64,1.45c0,0.69,0.47,0.95,1.02,0.95
					C52.06,265.46,52.54,265.19,53.13,264.68z"/>
				<path class="st18" d="M54.89,263.33c0-1.55,0.98-2.53,2.13-2.53c0.58,0,0.97,0.22,1.45,0.59l-0.02-0.88v-1.98h0.44v7.19h-0.37
					l-0.05-0.62h-0.02c-0.39,0.39-0.93,0.74-1.56,0.74C55.67,265.84,54.89,264.95,54.89,263.33z M58.44,264.66v-2.85
					c-0.51-0.45-0.93-0.62-1.4-0.62c-0.95,0-1.69,0.93-1.69,2.13c0,1.28,0.57,2.12,1.59,2.12
					C57.47,265.45,57.94,265.17,58.44,264.66z"/>
				<path class="st18" d="M60.56,259.37c0-0.25,0.18-0.39,0.4-0.39s0.4,0.14,0.4,0.39c0,0.23-0.18,0.39-0.4,0.39
					S60.56,259.6,60.56,259.37z M60.73,260.92h0.44v4.8h-0.44V260.92z"/>
				<path class="st18" d="M63.02,260.92h0.37l0.05,0.6h0.02c0.47-0.38,1.04-0.72,1.63-0.72c1.29,0,1.92,0.96,1.92,2.45
					c0,1.63-0.98,2.59-2.11,2.59c-0.46,0-0.94-0.22-1.44-0.59l0.01,0.89v1.76h-0.44V260.92z M66.55,263.25
					c0-1.18-0.42-2.06-1.53-2.06c-0.48,0-0.98,0.28-1.56,0.79v2.85c0.54,0.45,1.05,0.62,1.41,0.62
					C65.85,265.45,66.55,264.55,66.55,263.25z"/>
				<path class="st18" d="M68.29,259.37c0-0.25,0.18-0.39,0.4-0.39s0.4,0.14,0.4,0.39c0,0.23-0.18,0.39-0.4,0.39
					S68.29,259.6,68.29,259.37z M68.46,260.92h0.44v4.8h-0.44V260.92z"/>
				<path class="st18" d="M70.15,265.17l0.26-0.32c0.41,0.34,0.84,0.61,1.53,0.61c0.76,0,1.15-0.44,1.15-0.95
					c0-0.6-0.62-0.87-1.18-1.07c-0.72-0.26-1.53-0.55-1.53-1.37c0-0.69,0.55-1.28,1.55-1.28c0.51,0,1.02,0.21,1.37,0.5l-0.24,0.32
					c-0.32-0.24-0.66-0.44-1.15-0.44c-0.75,0-1.09,0.43-1.09,0.87c0,0.55,0.57,0.75,1.14,0.97c0.74,0.28,1.57,0.53,1.57,1.46
					c0,0.72-0.58,1.35-1.62,1.35C71.2,265.84,70.58,265.54,70.15,265.17z"/>
				<path class="st18" d="M74.4,263.33c0-1.61,1.03-2.53,2.19-2.53c0.65,0,1.08,0.29,1.41,0.59l-0.26,0.31
					c-0.31-0.29-0.67-0.51-1.14-0.51c-0.98,0-1.74,0.88-1.74,2.14c0,1.26,0.69,2.12,1.73,2.12c0.51,0,0.96-0.25,1.29-0.55l0.23,0.31
					c-0.41,0.37-0.92,0.63-1.53,0.63C75.34,265.84,74.4,264.92,74.4,263.33z"/>
				<path class="st18" d="M79.12,259.37c0-0.25,0.18-0.39,0.4-0.39s0.4,0.14,0.4,0.39c0,0.23-0.18,0.39-0.4,0.39
					S79.12,259.6,79.12,259.37z M79.29,260.92h0.44v4.8h-0.44V260.92z"/>
				<path class="st18" d="M81.58,260.92h0.37l0.05,0.74h0.02c0.49-0.49,0.99-0.86,1.65-0.86c0.99,0,1.45,0.6,1.45,1.84v3.08h-0.44
					v-3.02c0-1.02-0.32-1.5-1.09-1.5c-0.57,0-0.99,0.3-1.57,0.9v3.62h-0.44V260.92z"/>
				<path class="st18" d="M86.5,266.7c0-0.42,0.28-0.85,0.72-1.16v-0.04c-0.24-0.14-0.42-0.4-0.42-0.77c0-0.43,0.31-0.74,0.52-0.89
					v-0.04c-0.31-0.26-0.61-0.74-0.61-1.32c0-0.99,0.75-1.69,1.69-1.69c0.26,0,0.49,0.06,0.64,0.12h1.62v0.38h-1.12
					c0.31,0.26,0.53,0.7,0.53,1.2c0,0.98-0.74,1.7-1.68,1.7c-0.27,0-0.57-0.07-0.79-0.21c-0.21,0.17-0.39,0.38-0.39,0.69
					c0,0.35,0.2,0.62,0.92,0.62h1.03c1.08,0,1.58,0.34,1.58,1.1c0,0.83-0.89,1.62-2.27,1.62C87.26,268.03,86.5,267.51,86.5,266.7z
					 M90.29,266.46c0-0.53-0.38-0.73-1.11-0.73h-1.03c-0.09,0-0.35-0.02-0.59-0.08c-0.44,0.3-0.63,0.67-0.63,1.01
					c0,0.61,0.58,1.02,1.59,1.02C89.6,267.67,90.29,267.06,90.29,266.46z M89.64,262.49c0-0.81-0.56-1.33-1.24-1.33
					s-1.24,0.51-1.24,1.33c0,0.8,0.58,1.35,1.24,1.35S89.64,263.3,89.64,262.49z"/>
				<path class="st18" d="M93.37,263.33c0-1.57,1.02-2.53,2.09-2.53c1.14,0,1.84,0.81,1.84,2.22c0,0.12,0,0.24-0.03,0.36h-3.45
					c0.02,1.21,0.73,2.08,1.81,2.08c0.52,0,0.93-0.17,1.29-0.43l0.18,0.34c-0.38,0.24-0.81,0.47-1.51,0.47
					C94.36,265.84,93.37,264.9,93.37,263.33z M96.88,263.02c0-1.22-0.56-1.83-1.42-1.83c-0.81,0-1.55,0.69-1.65,1.83H96.88z"/>
				<path class="st18" d="M98.6,265.08v-6.55h0.44v6.61c0,0.21,0.09,0.31,0.21,0.31c0.04,0,0.08,0,0.18-0.02l0.07,0.36
					c-0.09,0.03-0.17,0.05-0.32,0.05C98.8,265.84,98.6,265.6,98.6,265.08z"/>
				<path class="st18" d="M100.8,259.37c0-0.25,0.18-0.39,0.4-0.39s0.4,0.14,0.4,0.39c0,0.23-0.18,0.39-0.4,0.39
					S100.8,259.6,100.8,259.37z M100.97,260.92h0.44v4.8h-0.44V260.92z"/>
				<path class="st18" d="M103.37,264.39v-3.09h-0.75v-0.34l0.76-0.04l0.06-1.39h0.38v1.39h1.39v0.39h-1.39v3.12
					c0,0.61,0.15,1.03,0.82,1.03c0.18,0,0.43-0.08,0.6-0.15l0.12,0.36c-0.28,0.1-0.58,0.18-0.78,0.18
					C103.64,265.84,103.37,265.25,103.37,264.39z"/>
				<path class="st18" d="M105.94,266.97c0.46-0.24,0.77-0.67,0.77-1.24l-0.13-0.59l0.36,0.47c-0.09,0.14-0.22,0.16-0.35,0.16
					c-0.23,0-0.42-0.14-0.42-0.42c0-0.27,0.21-0.42,0.43-0.42c0.31,0,0.51,0.27,0.51,0.71c0,0.73-0.43,1.31-1.03,1.63L105.94,266.97
					z"/>
				<path class="st18" d="M109.97,265.17l0.26-0.32c0.41,0.34,0.84,0.61,1.53,0.61c0.76,0,1.15-0.44,1.15-0.95
					c0-0.6-0.62-0.87-1.18-1.07c-0.72-0.26-1.53-0.55-1.53-1.37c0-0.69,0.55-1.28,1.55-1.28c0.51,0,1.02,0.21,1.37,0.5l-0.24,0.32
					c-0.32-0.24-0.66-0.44-1.15-0.44c-0.75,0-1.09,0.43-1.09,0.87c0,0.55,0.57,0.75,1.14,0.97c0.74,0.28,1.57,0.53,1.57,1.46
					c0,0.72-0.58,1.35-1.62,1.35C111.02,265.84,110.4,265.54,109.97,265.17z"/>
				<path class="st18" d="M114.22,263.33c0-1.57,1.02-2.53,2.09-2.53c1.14,0,1.84,0.81,1.84,2.22c0,0.12,0,0.24-0.03,0.36h-3.45
					c0.02,1.21,0.73,2.08,1.81,2.08c0.52,0,0.93-0.17,1.29-0.43l0.18,0.34c-0.38,0.24-0.81,0.47-1.51,0.47
					C115.21,265.84,114.22,264.9,114.22,263.33z M117.73,263.02c0-1.22-0.56-1.83-1.42-1.83c-0.81,0-1.55,0.69-1.65,1.83H117.73z"/>
				<path class="st18" d="M119.05,263.33c0-1.55,0.98-2.53,2.13-2.53c0.58,0,0.97,0.22,1.45,0.59l-0.02-0.88v-1.98h0.44v7.19h-0.37
					l-0.05-0.62h-0.02c-0.39,0.39-0.93,0.74-1.56,0.74C119.83,265.84,119.05,264.95,119.05,263.33z M122.6,264.66v-2.85
					c-0.51-0.45-0.93-0.62-1.4-0.62c-0.95,0-1.69,0.93-1.69,2.13c0,1.28,0.57,2.12,1.59,2.12
					C121.63,265.45,122.1,265.17,122.6,264.66z"/>
				<path class="st18" d="M126.49,263.33c0-1.55,0.98-2.53,2.13-2.53c0.58,0,0.97,0.22,1.45,0.59l-0.02-0.88v-1.98h0.44v7.19h-0.37
					l-0.05-0.62h-0.02c-0.39,0.39-0.93,0.74-1.56,0.74C127.27,265.84,126.49,264.95,126.49,263.33z M130.04,264.66v-2.85
					c-0.51-0.45-0.93-0.62-1.4-0.62c-0.95,0-1.69,0.93-1.69,2.13c0,1.28,0.57,2.12,1.59,2.12
					C129.07,265.45,129.54,265.17,130.04,264.66z"/>
				<path class="st18" d="M132.16,259.37c0-0.25,0.18-0.39,0.4-0.39s0.4,0.14,0.4,0.39c0,0.23-0.18,0.39-0.4,0.39
					S132.16,259.6,132.16,259.37z M132.33,260.92h0.44v4.8h-0.44V260.92z"/>
				<path class="st18" d="M134.28,264.52c0-1.07,0.96-1.57,3.1-1.81c0.01-0.74-0.19-1.53-1.13-1.53c-0.65,0-1.21,0.32-1.53,0.56
					l-0.2-0.33c0.34-0.24,1.01-0.62,1.79-0.62c1.14,0,1.52,0.83,1.52,1.85v3.07h-0.37l-0.05-0.62h-0.02
					c-0.49,0.4-1.07,0.74-1.7,0.74C134.91,265.84,134.28,265.42,134.28,264.52z M137.37,264.68v-1.63
					c-1.97,0.23-2.64,0.69-2.64,1.45c0,0.69,0.47,0.95,1.02,0.95C136.3,265.46,136.78,265.19,137.37,264.68z"/>
				<path class="st18" d="M139.53,260.92h0.37l0.05,0.75h0.02c0.44-0.49,0.98-0.87,1.52-0.87c0.77,0,1.15,0.39,1.33,0.98
					c0.54-0.6,1.08-0.98,1.63-0.98c0.96,0,1.44,0.6,1.44,1.84v3.08h-0.44v-3.02c0-1.02-0.34-1.5-1.08-1.5c-0.45,0-0.91,0.3-1.44,0.9
					v3.62h-0.44v-3.02c0-1.02-0.34-1.5-1.08-1.5c-0.43,0-0.91,0.3-1.44,0.9v3.62h-0.44V260.92z"/>
				<path class="st18" d="M149.65,260.92h0.37l0.05,0.74h0.02c0.49-0.49,0.99-0.86,1.65-0.86c0.99,0,1.45,0.6,1.45,1.84v3.08h-0.44
					v-3.02c0-1.02-0.32-1.5-1.09-1.5c-0.57,0-0.99,0.3-1.57,0.9v3.62h-0.44V260.92z"/>
				<path class="st18" d="M154.57,263.33c0-1.61,1-2.53,2.15-2.53s2.15,0.92,2.15,2.53c0,1.59-1,2.51-2.15,2.51
					S154.57,264.92,154.57,263.33z M158.41,263.33c0-1.26-0.72-2.14-1.69-2.14c-0.97,0-1.69,0.88-1.69,2.14
					c0,1.26,0.72,2.12,1.69,2.12C157.69,265.45,158.41,264.59,158.41,263.33z"/>
				<path class="st18" d="M160.32,260.92h0.37l0.05,0.74h0.02c0.49-0.49,0.99-0.86,1.65-0.86c0.99,0,1.45,0.6,1.45,1.84v3.08h-0.44
					v-3.02c0-1.02-0.32-1.5-1.09-1.5c-0.57,0-0.99,0.3-1.57,0.9v3.62h-0.44V260.92z"/>
				<path class="st18" d="M165.57,264v-3.08h0.44v3.02c0,1.02,0.32,1.5,1.09,1.5c0.57,0,0.99-0.3,1.55-0.98v-3.54h0.44v4.8h-0.37
					l-0.05-0.8h-0.02c-0.47,0.55-0.97,0.92-1.63,0.92C166.03,265.84,165.57,265.24,165.57,264z"/>
				<path class="st18" d="M170.93,260.92h0.37l0.05,0.75h0.02c0.44-0.49,0.98-0.87,1.52-0.87c0.77,0,1.15,0.39,1.33,0.98
					c0.54-0.6,1.08-0.98,1.63-0.98c0.96,0,1.44,0.6,1.44,1.84v3.08h-0.44v-3.02c0-1.02-0.34-1.5-1.08-1.5c-0.45,0-0.91,0.3-1.44,0.9
					v3.62h-0.44v-3.02c0-1.02-0.34-1.5-1.08-1.5c-0.43,0-0.91,0.3-1.44,0.9v3.62h-0.44V260.92z"/>
				<path class="st18" d="M179.05,260.92h0.37l0.05,0.75h0.02c0.44-0.49,0.98-0.87,1.52-0.87c0.77,0,1.15,0.39,1.33,0.98
					c0.54-0.6,1.08-0.98,1.63-0.98c0.96,0,1.44,0.6,1.44,1.84v3.08h-0.44v-3.02c0-1.02-0.34-1.5-1.08-1.5c-0.45,0-0.91,0.3-1.44,0.9
					v3.62h-0.44v-3.02c0-1.02-0.34-1.5-1.08-1.5c-0.43,0-0.91,0.3-1.44,0.9v3.62h-0.44V260.92z"/>
				<path class="st18" d="M186.49,267.8l0.1-0.38c0.1,0.04,0.26,0.08,0.39,0.08c0.59,0,0.99-0.54,1.23-1.27l0.13-0.42l-1.97-4.89
					h0.48l1.16,3.02c0.16,0.41,0.35,0.92,0.52,1.35h0.04c0.15-0.43,0.31-0.94,0.45-1.35l1.02-3.02h0.45l-1.9,5.4
					c-0.27,0.8-0.75,1.58-1.62,1.58C186.8,267.9,186.62,267.86,186.49,267.8z"/>
				<path class="st18" d="M193.53,260.92h0.37l0.05,0.74h0.02c0.49-0.49,0.99-0.86,1.65-0.86c0.99,0,1.45,0.6,1.45,1.84v3.08h-0.44
					v-3.02c0-1.02-0.32-1.5-1.09-1.5c-0.57,0-0.99,0.3-1.57,0.9v3.62h-0.44V260.92z"/>
				<path class="st18" d="M198.68,259.37c0-0.25,0.18-0.39,0.4-0.39s0.4,0.14,0.4,0.39c0,0.23-0.18,0.39-0.4,0.39
					S198.68,259.6,198.68,259.37z M198.85,260.92h0.44v4.8h-0.44V260.92z"/>
				<path class="st18" d="M201.58,265.23h-0.02l-0.05,0.49h-0.37v-7.19h0.44v2.09l-0.02,0.94c0.48-0.41,1.07-0.75,1.65-0.75
					c1.29,0,1.92,0.96,1.92,2.45c0,1.63-0.98,2.59-2.11,2.59C202.56,265.84,202.03,265.6,201.58,265.23z M204.67,263.25
					c0-1.18-0.42-2.06-1.53-2.06c-0.48,0-1,0.28-1.56,0.79v2.85c0.52,0.45,1.05,0.62,1.41,0.62
					C203.97,265.45,204.67,264.55,204.67,263.25z"/>
				<path class="st18" d="M206.56,258.53H207v2.09l-0.01,1.06c0.5-0.5,1-0.87,1.66-0.87c0.99,0,1.45,0.6,1.45,1.84v3.08h-0.44v-3.02
					c0-1.02-0.32-1.5-1.09-1.5c-0.57,0-0.99,0.3-1.57,0.9v3.62h-0.44V258.53z"/>
				<path class="st18" d="M49.98,278.17c0-1.57,1.02-2.53,2.09-2.53c1.14,0,1.84,0.81,1.84,2.22c0,0.12,0,0.24-0.03,0.36h-3.45
					c0.02,1.21,0.73,2.08,1.81,2.08c0.52,0,0.93-0.17,1.29-0.43l0.18,0.34c-0.38,0.24-0.81,0.47-1.51,0.47
					C50.97,280.68,49.98,279.74,49.98,278.17z M53.49,277.86c0-1.23-0.56-1.83-1.42-1.83c-0.81,0-1.55,0.69-1.65,1.83H53.49z"/>
				<path class="st18" d="M55.14,278.84v-3.08h0.44v3.02c0,1.02,0.32,1.5,1.09,1.5c0.57,0,0.99-0.3,1.55-0.98v-3.54h0.44v4.8h-0.37
					l-0.05-0.8h-0.02c-0.47,0.55-0.97,0.92-1.63,0.92C55.6,280.68,55.14,280.08,55.14,278.84z"/>
				<path class="st18" d="M60.33,274.21c0-0.25,0.18-0.39,0.4-0.39s0.4,0.14,0.4,0.39c0,0.23-0.18,0.39-0.4,0.39
					S60.33,274.44,60.33,274.21z M60.5,275.76h0.44v4.8H60.5V275.76z"/>
				<path class="st18" d="M62.19,280.01l0.26-0.32c0.41,0.34,0.84,0.61,1.53,0.61c0.76,0,1.15-0.44,1.15-0.95
					c0-0.6-0.62-0.87-1.18-1.07c-0.72-0.26-1.53-0.55-1.53-1.37c0-0.69,0.55-1.28,1.55-1.28c0.51,0,1.02,0.21,1.37,0.5l-0.24,0.32
					c-0.32-0.24-0.66-0.44-1.15-0.44c-0.75,0-1.09,0.43-1.09,0.87c0,0.55,0.57,0.76,1.14,0.97c0.74,0.28,1.57,0.53,1.57,1.46
					c0,0.72-0.58,1.35-1.62,1.35C63.24,280.68,62.62,280.38,62.19,280.01z"/>
				<path class="st18" d="M66.84,275.76h0.37l0.05,0.74h0.02c0.44-0.49,0.98-0.86,1.52-0.86c0.77,0,1.15,0.39,1.33,0.98
					c0.54-0.6,1.08-0.98,1.63-0.98c0.96,0,1.44,0.6,1.44,1.84v3.08h-0.44v-3.02c0-1.02-0.34-1.5-1.08-1.5c-0.45,0-0.91,0.3-1.44,0.9
					v3.62H69.8v-3.02c0-1.02-0.34-1.5-1.08-1.5c-0.43,0-0.91,0.3-1.44,0.9v3.62h-0.44V275.76z"/>
				<path class="st18" d="M74.56,278.17c0-1.6,1-2.53,2.15-2.53s2.15,0.92,2.15,2.53c0,1.59-1,2.51-2.15,2.51
					S74.56,279.75,74.56,278.17z M78.4,278.17c0-1.26-0.72-2.14-1.69-2.14c-0.97,0-1.69,0.88-1.69,2.14c0,1.26,0.72,2.12,1.69,2.12
					C77.68,280.29,78.4,279.43,78.4,278.17z"/>
				<path class="st18" d="M79.91,278.17c0-1.55,0.98-2.53,2.13-2.53c0.58,0,0.97,0.22,1.45,0.59l-0.02-0.88v-1.98h0.44v7.19h-0.37
					l-0.05-0.62h-0.02c-0.39,0.39-0.93,0.74-1.56,0.74C80.69,280.68,79.91,279.79,79.91,278.17z M83.46,279.49v-2.85
					c-0.51-0.45-0.93-0.62-1.4-0.62c-0.95,0-1.69,0.93-1.69,2.13c0,1.28,0.57,2.12,1.59,2.12
					C82.49,280.29,82.96,280.01,83.46,279.49z"/>
				<path class="st18" d="M87.86,279.23v-3.09h-0.75v-0.34l0.76-0.04l0.06-1.39h0.38v1.39h1.39v0.39h-1.39v3.12
					c0,0.61,0.15,1.03,0.82,1.03c0.18,0,0.43-0.08,0.6-0.15l0.12,0.36c-0.28,0.1-0.58,0.18-0.78,0.18
					C88.13,280.68,87.86,280.09,87.86,279.23z"/>
				<path class="st18" d="M90.7,274.21c0-0.25,0.18-0.39,0.4-0.39s0.4,0.14,0.4,0.39c0,0.23-0.18,0.39-0.4,0.39
					S90.7,274.44,90.7,274.21z M90.87,275.76h0.44v4.8h-0.44V275.76z"/>
				<path class="st18" d="M93.16,275.76h0.37l0.05,0.74h0.02c0.49-0.49,0.99-0.86,1.65-0.86c0.99,0,1.45,0.6,1.45,1.84v3.08h-0.44
					v-3.02c0-1.02-0.32-1.5-1.09-1.5c-0.57,0-0.99,0.3-1.57,0.9v3.62h-0.44V275.76z"/>
				<path class="st18" d="M98.08,278.17c0-1.6,1.03-2.53,2.19-2.53c0.65,0,1.08,0.29,1.41,0.59l-0.26,0.31
					c-0.31-0.29-0.67-0.51-1.14-0.51c-0.98,0-1.74,0.88-1.74,2.14c0,1.26,0.69,2.12,1.73,2.12c0.51,0,0.96-0.25,1.29-0.55l0.23,0.31
					c-0.41,0.37-0.92,0.63-1.53,0.63C99.02,280.68,98.08,279.75,98.08,278.17z"/>
				<path class="st18" d="M102.8,274.21c0-0.25,0.18-0.39,0.4-0.39s0.4,0.14,0.4,0.39c0,0.23-0.18,0.39-0.4,0.39
					S102.8,274.44,102.8,274.21z M102.97,275.76h0.44v4.8h-0.44V275.76z"/>
				<path class="st18" d="M104.86,278.17c0-1.55,0.98-2.53,2.13-2.53c0.58,0,0.97,0.22,1.45,0.59l-0.02-0.88v-1.98h0.44v7.19h-0.37
					l-0.05-0.62h-0.02c-0.39,0.39-0.93,0.74-1.56,0.74C105.64,280.68,104.86,279.79,104.86,278.17z M108.41,279.49v-2.85
					c-0.51-0.45-0.93-0.62-1.4-0.62c-0.95,0-1.69,0.93-1.69,2.13c0,1.28,0.57,2.12,1.59,2.12
					C107.44,280.29,107.91,280.01,108.41,279.49z"/>
				<path class="st18" d="M110.63,278.84v-3.08h0.44v3.02c0,1.02,0.32,1.5,1.09,1.5c0.57,0,0.99-0.3,1.55-0.98v-3.54h0.44v4.8h-0.37
					l-0.05-0.8h-0.02c-0.47,0.55-0.97,0.92-1.63,0.92C111.09,280.68,110.63,280.08,110.63,278.84z"/>
				<path class="st18" d="M115.99,275.76h0.37l0.05,0.74h0.02c0.49-0.49,0.99-0.86,1.65-0.86c0.99,0,1.45,0.6,1.45,1.84v3.08h-0.44
					v-3.02c0-1.02-0.32-1.5-1.09-1.5c-0.57,0-0.99,0.3-1.57,0.9v3.62h-0.44V275.76z"/>
				<path class="st18" d="M121.42,279.23v-3.09h-0.75v-0.34l0.76-0.04l0.06-1.39h0.38v1.39h1.39v0.39h-1.39v3.12
					c0,0.61,0.15,1.03,0.82,1.03c0.18,0,0.43-0.08,0.6-0.15l0.12,0.36c-0.28,0.1-0.58,0.18-0.78,0.18
					C121.69,280.68,121.42,280.09,121.42,279.23z"/>
				<path class="st18" d="M126.36,278.84v-3.08h0.44v3.02c0,1.02,0.32,1.5,1.09,1.5c0.57,0,0.99-0.3,1.55-0.98v-3.54h0.44v4.8h-0.37
					l-0.05-0.8h-0.02c-0.47,0.55-0.97,0.92-1.63,0.92C126.82,280.68,126.36,280.08,126.36,278.84z"/>
				<path class="st18" d="M131.83,279.23v-3.09h-0.75v-0.34l0.76-0.04l0.06-1.39h0.38v1.39h1.39v0.39h-1.39v3.12
					c0,0.61,0.15,1.03,0.82,1.03c0.18,0,0.43-0.08,0.6-0.15l0.12,0.36c-0.28,0.1-0.58,0.18-0.78,0.18
					C132.1,280.68,131.83,280.09,131.83,279.23z"/>
				<path class="st18" d="M136.84,279.91v-6.55h0.44v6.61c0,0.21,0.09,0.31,0.21,0.31c0.04,0,0.08,0,0.18-0.02l0.07,0.36
					c-0.09,0.03-0.17,0.05-0.32,0.05C137.04,280.68,136.84,280.44,136.84,279.91z"/>
				<path class="st18" d="M138.87,279.36c0-1.07,0.96-1.57,3.1-1.81c0.01-0.74-0.19-1.53-1.13-1.53c-0.65,0-1.21,0.32-1.53,0.56
					l-0.2-0.33c0.34-0.24,1.01-0.62,1.79-0.62c1.14,0,1.52,0.83,1.52,1.85v3.07h-0.37l-0.05-0.62h-0.02
					c-0.49,0.4-1.07,0.74-1.7,0.74C139.5,280.68,138.87,280.26,138.87,279.36z M141.96,279.52v-1.63c-1.97,0.23-2.64,0.69-2.64,1.45
					c0,0.69,0.47,0.95,1.02,0.95C140.89,280.29,141.37,280.03,141.96,279.52z"/>
				<path class="st18" d="M143.72,278.17c0-1.6,1-2.53,2.15-2.53s2.15,0.92,2.15,2.53c0,1.59-1,2.51-2.15,2.51
					S143.72,279.75,143.72,278.17z M147.56,278.17c0-1.26-0.72-2.14-1.69-2.14c-0.97,0-1.69,0.88-1.69,2.14
					c0,1.26,0.72,2.12,1.69,2.12C146.84,280.29,147.56,279.43,147.56,278.17z"/>
				<path class="st18" d="M149.47,275.76h0.37l0.05,0.9h0.02c0.32-0.59,0.79-1.02,1.37-1.02c0.17,0,0.32,0.02,0.48,0.1l-0.1,0.4
					c-0.16-0.06-0.25-0.08-0.43-0.08c-0.43,0-0.94,0.33-1.31,1.24v3.26h-0.44V275.76z"/>
				<path class="st18" d="M152.24,278.17c0-1.57,1.02-2.53,2.09-2.53c1.14,0,1.84,0.81,1.84,2.22c0,0.12,0,0.24-0.03,0.36h-3.45
					c0.02,1.21,0.73,2.08,1.81,2.08c0.52,0,0.93-0.17,1.29-0.43l0.18,0.34c-0.38,0.24-0.81,0.47-1.51,0.47
					C153.23,280.68,152.24,279.74,152.24,278.17z M155.75,277.86c0-1.23-0.56-1.83-1.42-1.83c-0.81,0-1.55,0.69-1.65,1.83H155.75z"
					/>
				<path class="st18" d="M157.07,278.17c0-1.57,1.02-2.53,2.09-2.53c1.14,0,1.84,0.81,1.84,2.22c0,0.12,0,0.24-0.03,0.36h-3.45
					c0.02,1.21,0.73,2.08,1.81,2.08c0.52,0,0.93-0.17,1.29-0.43l0.18,0.34c-0.38,0.24-0.81,0.47-1.51,0.47
					C158.06,280.68,157.07,279.74,157.07,278.17z M160.58,277.86c0-1.23-0.56-1.83-1.42-1.83c-0.81,0-1.55,0.69-1.65,1.83H160.58z"
					/>
				<path class="st18" d="M162.42,279.23v-3.09h-0.75v-0.34l0.76-0.04l0.06-1.39h0.38v1.39h1.39v0.39h-1.39v3.12
					c0,0.61,0.15,1.03,0.82,1.03c0.18,0,0.43-0.08,0.6-0.15l0.12,0.36c-0.28,0.1-0.58,0.18-0.78,0.18
					C162.68,280.68,162.42,280.09,162.42,279.23z"/>
				<path class="st18" d="M167.02,278.17c0-1.55,0.98-2.53,2.13-2.53c0.58,0,0.97,0.22,1.45,0.59l-0.02-0.88v-1.98h0.44v7.19h-0.37
					l-0.05-0.62h-0.02c-0.39,0.39-0.93,0.74-1.56,0.74C167.8,280.68,167.02,279.79,167.02,278.17z M170.58,279.49v-2.85
					c-0.51-0.45-0.93-0.62-1.4-0.62c-0.95,0-1.69,0.93-1.69,2.13c0,1.28,0.57,2.12,1.59,2.12
					C169.6,280.29,170.07,280.01,170.58,279.49z"/>
				<path class="st18" d="M172.46,278.17c0-1.6,1-2.53,2.15-2.53s2.15,0.92,2.15,2.53c0,1.59-1,2.51-2.15,2.51
					S172.46,279.75,172.46,278.17z M176.31,278.17c0-1.26-0.72-2.14-1.69-2.14c-0.97,0-1.69,0.88-1.69,2.14
					c0,1.26,0.72,2.12,1.69,2.12C175.58,280.29,176.31,279.43,176.31,278.17z"/>
				<path class="st18" d="M178.21,279.91v-6.55h0.44v6.61c0,0.21,0.09,0.31,0.21,0.31c0.04,0,0.08,0,0.18-0.02l0.07,0.36
					c-0.09,0.03-0.17,0.05-0.32,0.05C178.41,280.68,178.21,280.44,178.21,279.91z"/>
				<path class="st18" d="M180.18,278.17c0-1.6,1-2.53,2.15-2.53s2.15,0.92,2.15,2.53c0,1.59-1,2.51-2.15,2.51
					S180.18,279.75,180.18,278.17z M184.03,278.17c0-1.26-0.72-2.14-1.69-2.14c-0.97,0-1.69,0.88-1.69,2.14
					c0,1.26,0.72,2.12,1.69,2.12C183.3,280.29,184.03,279.43,184.03,278.17z"/>
				<path class="st18" d="M185.93,275.76h0.37l0.05,0.9h0.02c0.32-0.59,0.79-1.02,1.37-1.02c0.17,0,0.32,0.02,0.48,0.1l-0.1,0.4
					c-0.16-0.06-0.25-0.08-0.43-0.08c-0.43,0-0.94,0.33-1.31,1.24v3.26h-0.44V275.76z"/>
				<path class="st18" d="M188.7,278.17c0-1.57,1.02-2.53,2.09-2.53c1.14,0,1.84,0.81,1.84,2.22c0,0.12,0,0.24-0.03,0.36h-3.45
					c0.02,1.21,0.73,2.08,1.81,2.08c0.52,0,0.93-0.17,1.29-0.43l0.18,0.34c-0.38,0.24-0.81,0.47-1.51,0.47
					C189.69,280.68,188.7,279.74,188.7,278.17z M192.21,277.86c0-1.23-0.56-1.83-1.42-1.83c-0.81,0-1.55,0.69-1.65,1.83H192.21z"/>
				<path class="st18" d="M50.38,290.6h0.37l0.05,0.74h0.02c0.44-0.49,0.98-0.86,1.52-0.86c0.77,0,1.15,0.39,1.33,0.98
					c0.54-0.6,1.08-0.98,1.63-0.98c0.96,0,1.44,0.6,1.44,1.84v3.08h-0.44v-3.02c0-1.02-0.34-1.5-1.08-1.5c-0.45,0-0.91,0.3-1.44,0.9
					v3.62h-0.44v-3.02c0-1.02-0.34-1.5-1.08-1.5c-0.43,0-0.91,0.3-1.44,0.9v3.62h-0.44V290.6z"/>
				<path class="st18" d="M58.16,294.2c0-1.07,0.96-1.57,3.1-1.81c0.01-0.74-0.19-1.53-1.13-1.53c-0.65,0-1.21,0.32-1.53,0.56
					l-0.2-0.33c0.34-0.24,1.01-0.62,1.79-0.62c1.14,0,1.52,0.83,1.52,1.85v3.07h-0.37l-0.05-0.62h-0.02
					c-0.49,0.4-1.07,0.74-1.7,0.74C58.79,295.52,58.16,295.1,58.16,294.2z M61.25,294.36v-1.63c-1.97,0.23-2.64,0.69-2.64,1.45
					c0,0.69,0.47,0.95,1.02,0.95C60.18,295.13,60.66,294.87,61.25,294.36z"/>
				<path class="st18" d="M63.01,296.38c0-0.42,0.28-0.85,0.72-1.16v-0.04c-0.24-0.14-0.42-0.4-0.42-0.77
					c0-0.43,0.31-0.74,0.52-0.89v-0.04c-0.31-0.26-0.61-0.74-0.61-1.31c0-0.99,0.75-1.69,1.69-1.69c0.26,0,0.49,0.06,0.64,0.12h1.62
					v0.38h-1.12c0.31,0.26,0.53,0.7,0.53,1.2c0,0.98-0.74,1.69-1.68,1.69c-0.27,0-0.57-0.07-0.79-0.2
					c-0.21,0.17-0.39,0.37-0.39,0.69c0,0.35,0.2,0.62,0.92,0.62h1.03c1.08,0,1.58,0.34,1.58,1.1c0,0.83-0.89,1.62-2.27,1.62
					C63.77,297.71,63.01,297.19,63.01,296.38z M66.8,296.13c0-0.53-0.38-0.73-1.11-0.73h-1.03c-0.09,0-0.35-0.02-0.59-0.08
					c-0.44,0.3-0.63,0.67-0.63,1.01c0,0.61,0.58,1.02,1.59,1.02C66.11,297.35,66.8,296.74,66.8,296.13z M66.15,292.17
					c0-0.81-0.56-1.33-1.24-1.33s-1.24,0.51-1.24,1.33c0,0.8,0.58,1.35,1.24,1.35S66.15,292.97,66.15,292.17z"/>
				<path class="st18" d="M68.28,290.6h0.37l0.05,0.74h0.02c0.49-0.49,0.99-0.86,1.65-0.86c0.99,0,1.45,0.6,1.45,1.84v3.08h-0.44
					v-3.02c0-1.02-0.32-1.5-1.09-1.5c-0.57,0-0.99,0.3-1.57,0.9v3.62h-0.44V290.6z"/>
				<path class="st18" d="M73.26,294.2c0-1.07,0.96-1.57,3.1-1.81c0.01-0.74-0.19-1.53-1.13-1.53c-0.65,0-1.21,0.32-1.53,0.56
					l-0.2-0.33c0.34-0.24,1.01-0.62,1.79-0.62c1.14,0,1.52,0.83,1.52,1.85v3.07h-0.37l-0.05-0.62h-0.02
					c-0.49,0.4-1.07,0.74-1.7,0.74C73.89,295.52,73.26,295.1,73.26,294.2z M76.35,294.36v-1.63c-1.97,0.23-2.64,0.69-2.64,1.45
					c0,0.69,0.47,0.95,1.02,0.95C75.28,295.13,75.76,294.87,76.35,294.36z"/>
				<path class="st18" d="M80.17,294.2c0-1.07,0.96-1.57,3.1-1.81c0.01-0.74-0.19-1.53-1.13-1.53c-0.65,0-1.21,0.32-1.53,0.56
					l-0.2-0.33c0.34-0.24,1.01-0.62,1.79-0.62c1.14,0,1.52,0.83,1.52,1.85v3.07h-0.37l-0.05-0.62h-0.02
					c-0.49,0.4-1.07,0.74-1.7,0.74C80.8,295.52,80.17,295.1,80.17,294.2z M83.27,294.36v-1.63c-1.97,0.23-2.64,0.69-2.64,1.45
					c0,0.69,0.47,0.95,1.02,0.95C82.19,295.13,82.67,294.87,83.27,294.36z"/>
				<path class="st18" d="M85.42,294.75v-6.55h0.44v6.61c0,0.21,0.09,0.31,0.21,0.31c0.04,0,0.08,0,0.18-0.02l0.07,0.36
					c-0.09,0.03-0.17,0.05-0.32,0.05C85.62,295.52,85.42,295.28,85.42,294.75z"/>
				<path class="st18" d="M87.62,289.05c0-0.25,0.18-0.39,0.4-0.39s0.4,0.14,0.4,0.39c0,0.23-0.18,0.39-0.4,0.39
					S87.62,289.28,87.62,289.05z M87.79,290.6h0.44v4.8h-0.44V290.6z"/>
				<path class="st18" d="M93.24,295.72l0.02-0.95c-0.43,0.41-0.96,0.75-1.59,0.75c-1.2,0-1.99-0.89-1.99-2.51
					c0-1.55,0.98-2.53,2.13-2.53c0.57,0,0.97,0.22,1.43,0.57h0.02l0.05-0.45h0.37v6.97h-0.44V295.72z M93.24,294.33v-2.85
					c-0.51-0.45-0.93-0.62-1.4-0.62c-0.95,0-1.69,0.93-1.69,2.13c0,1.28,0.57,2.12,1.59,2.12
					C92.26,295.12,92.73,294.85,93.24,294.33z"/>
				<path class="st18" d="M95.45,293.68v-3.08h0.44v3.02c0,1.02,0.32,1.5,1.09,1.5c0.57,0,0.99-0.3,1.55-0.98v-3.54h0.44v4.8H98.6
					l-0.05-0.8h-0.02c-0.47,0.55-0.97,0.92-1.63,0.92C95.91,295.52,95.45,294.92,95.45,293.68z"/>
				<path class="st18" d="M100.47,294.2c0-1.07,0.96-1.57,3.1-1.81c0.01-0.74-0.19-1.53-1.13-1.53c-0.65,0-1.21,0.32-1.53,0.56
					l-0.2-0.33c0.34-0.24,1.01-0.62,1.79-0.62c1.14,0,1.52,0.83,1.52,1.85v3.07h-0.37l-0.05-0.62h-0.02
					c-0.49,0.4-1.07,0.74-1.7,0.74C101.1,295.52,100.47,295.1,100.47,294.2z M103.57,294.36v-1.63c-1.97,0.23-2.64,0.69-2.64,1.45
					c0,0.69,0.47,0.95,1.02,0.95C102.49,295.13,102.97,294.87,103.57,294.36z"/>
				<path class="st18" d="M105.72,290.6h0.37l0.05,0.74h0.02c0.44-0.49,0.98-0.86,1.52-0.86c0.77,0,1.15,0.39,1.33,0.98
					c0.54-0.6,1.08-0.98,1.63-0.98c0.96,0,1.44,0.6,1.44,1.84v3.08h-0.44v-3.02c0-1.02-0.34-1.5-1.08-1.5c-0.45,0-0.91,0.3-1.44,0.9
					v3.62h-0.44v-3.02c0-1.02-0.34-1.5-1.08-1.5c-0.43,0-0.91,0.3-1.44,0.9v3.62h-0.44V290.6z"/>
				<path class="st18" d="M115.44,293.01c0-1.57,1.02-2.53,2.09-2.53c1.14,0,1.84,0.81,1.84,2.22c0,0.12,0,0.24-0.03,0.36h-3.45
					c0.02,1.21,0.73,2.08,1.81,2.08c0.52,0,0.93-0.17,1.29-0.43l0.18,0.34c-0.38,0.24-0.81,0.47-1.51,0.47
					C116.43,295.52,115.44,294.58,115.44,293.01z M118.95,292.69c0-1.23-0.56-1.83-1.42-1.83c-0.81,0-1.55,0.69-1.65,1.83H118.95z"
					/>
				<path class="st18" d="M120.67,290.6h0.37l0.05,0.9h0.02c0.32-0.59,0.79-1.02,1.37-1.02c0.17,0,0.32,0.02,0.48,0.1l-0.1,0.4
					c-0.16-0.06-0.25-0.08-0.43-0.08c-0.43,0-0.94,0.33-1.31,1.24v3.26h-0.44V290.6z"/>
				<path class="st18" d="M123.5,294.2c0-1.07,0.96-1.57,3.1-1.81c0.01-0.74-0.19-1.53-1.13-1.53c-0.65,0-1.21,0.32-1.53,0.56
					l-0.2-0.33c0.34-0.24,1.01-0.62,1.79-0.62c1.14,0,1.52,0.83,1.52,1.85v3.07h-0.37l-0.05-0.62h-0.02
					c-0.49,0.4-1.07,0.74-1.7,0.74C124.13,295.52,123.5,295.1,123.5,294.2z M126.6,294.36v-1.63c-1.97,0.23-2.64,0.69-2.64,1.45
					c0,0.69,0.47,0.95,1.02,0.95C125.52,295.13,126,294.87,126.6,294.36z"/>
				<path class="st18" d="M128.87,294.07v-3.09h-0.75v-0.34l0.76-0.04l0.06-1.39h0.38v1.39h1.39v0.39h-1.39v3.12
					c0,0.61,0.15,1.03,0.82,1.03c0.18,0,0.43-0.08,0.6-0.15l0.12,0.36c-0.28,0.1-0.58,0.18-0.78,0.18
					C129.14,295.52,128.87,294.93,128.87,294.07z"/>
				<path class="st18" d="M133.07,290.6h0.48l1.08,3.01c0.16,0.46,0.33,0.95,0.49,1.38h0.04c0.16-0.43,0.33-0.92,0.49-1.38
					l1.08-3.01h0.45l-1.78,4.8h-0.52L133.07,290.6z"/>
				<path class="st18" d="M137.81,293.01c0-1.6,1-2.53,2.15-2.53s2.15,0.92,2.15,2.53c0,1.59-1,2.51-2.15,2.51
					S137.81,294.59,137.81,293.01z M141.66,293.01c0-1.26-0.72-2.14-1.69-2.14c-0.97,0-1.69,0.88-1.69,2.14
					c0,1.26,0.72,2.12,1.69,2.12C140.93,295.13,141.66,294.27,141.66,293.01z"/>
				<path class="st18" d="M143.56,294.75v-6.55h0.44v6.61c0,0.21,0.09,0.31,0.21,0.31c0.04,0,0.08,0,0.18-0.02l0.07,0.36
					c-0.09,0.03-0.17,0.05-0.32,0.05C143.76,295.52,143.56,295.28,143.56,294.75z"/>
				<path class="st18" d="M145.86,293.68v-3.08h0.44v3.02c0,1.02,0.32,1.5,1.09,1.5c0.57,0,0.99-0.3,1.55-0.98v-3.54h0.44v4.8h-0.37
					l-0.05-0.8h-0.02c-0.47,0.55-0.97,0.92-1.63,0.92C146.32,295.52,145.86,294.92,145.86,293.68z"/>
				<path class="st18" d="M151.34,294.07v-3.09h-0.75v-0.34l0.76-0.04l0.06-1.39h0.38v1.39h1.39v0.39h-1.39v3.12
					c0,0.61,0.15,1.03,0.82,1.03c0.18,0,0.43-0.08,0.6-0.15l0.12,0.36c-0.28,0.1-0.58,0.18-0.78,0.18
					C151.61,295.52,151.34,294.93,151.34,294.07z"/>
				<path class="st18" d="M154.34,290.6h0.37l0.05,0.6h0.02c0.47-0.38,1.04-0.72,1.63-0.72c1.29,0,1.92,0.96,1.92,2.45
					c0,1.63-0.98,2.59-2.11,2.59c-0.46,0-0.94-0.22-1.44-0.59l0.01,0.89v1.76h-0.44V290.6z M157.87,292.93
					c0-1.18-0.42-2.06-1.53-2.06c-0.48,0-0.98,0.28-1.56,0.79v2.85c0.54,0.45,1.05,0.62,1.41,0.62
					C157.17,295.12,157.87,294.23,157.87,292.93z"/>
				<path class="st18" d="M159.44,294.2c0-1.07,0.96-1.57,3.1-1.81c0.01-0.74-0.19-1.53-1.13-1.53c-0.65,0-1.21,0.32-1.53,0.56
					l-0.2-0.33c0.34-0.24,1.01-0.62,1.79-0.62c1.14,0,1.52,0.83,1.52,1.85v3.07h-0.37l-0.05-0.62h-0.02
					c-0.49,0.4-1.07,0.74-1.7,0.74C160.07,295.52,159.44,295.1,159.44,294.2z M162.54,294.36v-1.63c-1.97,0.23-2.64,0.69-2.64,1.45
					c0,0.69,0.47,0.95,1.02,0.95C161.46,295.13,161.94,294.87,162.54,294.36z"/>
				<path class="st18" d="M164.81,294.07v-3.09h-0.75v-0.34l0.76-0.04l0.06-1.39h0.38v1.39h1.39v0.39h-1.39v3.12
					c0,0.61,0.15,1.03,0.82,1.03c0.18,0,0.43-0.08,0.6-0.15l0.12,0.36c-0.28,0.1-0.58,0.18-0.78,0.18
					C165.08,295.52,164.81,294.93,164.81,294.07z"/>
				<path class="st18" d="M167.56,295.07c0-0.29,0.2-0.46,0.42-0.46c0.22,0,0.42,0.17,0.42,0.46c0,0.27-0.2,0.45-0.42,0.45
					C167.77,295.52,167.56,295.34,167.56,295.07z"/>
			</g>
		</g>
		<path class="st19" d="M155.46,361.64H62.65c-8.49,0-15.37-6.88-15.37-15.37v0c0-8.49,6.88-15.37,15.37-15.37h92.81
			c8.49,0,15.37,6.88,15.37,15.37v0C170.83,354.76,163.95,361.64,155.46,361.64z"/>
		<g class="st17">
			<g>
				<path class="st14" d="M75.85,340.87h0.66v8.83h4.33v0.56h-4.99V340.87z"/>
				<path class="st14" d="M81.86,346.85c0-2.23,1.45-3.61,2.99-3.61c1.62,0,2.62,1.15,2.62,3.17c0,0.17-0.01,0.34-0.04,0.51h-4.93
					c0.02,1.73,1.04,2.96,2.58,2.96c0.74,0,1.33-0.25,1.84-0.61l0.26,0.48c-0.54,0.34-1.16,0.67-2.16,0.67
					C83.28,350.43,81.86,349.09,81.86,346.85z M86.88,346.41c0-1.75-0.79-2.62-2.02-2.62c-1.16,0-2.21,0.98-2.35,2.62H86.88z"/>
				<path class="st14" d="M88.84,348.56c0-1.52,1.37-2.24,4.42-2.58c0.02-1.05-0.27-2.18-1.62-2.18c-0.92,0-1.72,0.46-2.18,0.8
					l-0.29-0.47c0.48-0.34,1.44-0.89,2.55-0.89c1.62,0,2.17,1.18,2.17,2.64v4.37h-0.53l-0.07-0.89h-0.03
					c-0.7,0.56-1.53,1.06-2.43,1.06C89.74,350.43,88.84,349.84,88.84,348.56z M93.26,348.79v-2.33c-2.81,0.33-3.78,0.98-3.78,2.07
					c0,0.98,0.67,1.36,1.45,1.36C91.72,349.89,92.41,349.51,93.26,348.79z"/>
				<path class="st14" d="M96.34,343.42h0.53l0.07,1.28h0.03c0.46-0.84,1.13-1.45,1.95-1.45c0.25,0,0.45,0.03,0.68,0.14l-0.14,0.57
					c-0.23-0.08-0.36-0.11-0.62-0.11c-0.62,0-1.35,0.47-1.87,1.76v4.65h-0.63V343.42z"/>
				<path class="st14" d="M100.86,343.42h0.53l0.07,1.06h0.03c0.7-0.7,1.41-1.23,2.36-1.23c1.42,0,2.07,0.86,2.07,2.62v4.39h-0.63
					v-4.31c0-1.45-0.46-2.14-1.56-2.14c-0.82,0-1.41,0.43-2.24,1.29v5.16h-0.63V343.42z"/>
				<path class="st14" d="M111.37,340.87h0.93l1.96,5.51c0.25,0.69,0.49,1.39,0.74,2.09h0.06c0.25-0.7,0.47-1.39,0.72-2.09
					l1.96-5.51h0.93v9.39h-0.63v-6.17c0-0.76,0.05-1.75,0.08-2.54h-0.06l-0.73,2.09l-2.03,5.59h-0.57l-2.04-5.59l-0.74-2.09h-0.06
					c0.04,0.79,0.08,1.78,0.08,2.54v6.17h-0.6V340.87z"/>
				<path class="st14" d="M120.8,346.85c0-2.29,1.43-3.61,3.08-3.61s3.08,1.32,3.08,3.61c0,2.26-1.43,3.58-3.08,3.58
					S120.8,349.12,120.8,346.85z M126.29,346.85c0-1.8-1.03-3.05-2.41-3.05s-2.41,1.25-2.41,3.05s1.03,3.02,2.41,3.02
					S126.29,348.65,126.29,346.85z"/>
				<path class="st14" d="M129.01,343.42h0.53l0.07,1.28h0.03c0.46-0.84,1.13-1.45,1.95-1.45c0.25,0,0.45,0.03,0.68,0.14l-0.14,0.57
					c-0.23-0.08-0.36-0.11-0.62-0.11c-0.62,0-1.35,0.47-1.87,1.76v4.65h-0.63V343.42z"/>
				<path class="st14" d="M132.95,346.85c0-2.23,1.45-3.61,2.99-3.61c1.62,0,2.62,1.15,2.62,3.17c0,0.17-0.01,0.34-0.04,0.51h-4.93
					c0.02,1.73,1.04,2.96,2.58,2.96c0.74,0,1.33-0.25,1.84-0.61l0.26,0.48c-0.54,0.34-1.16,0.67-2.16,0.67
					C134.37,350.43,132.95,349.09,132.95,346.85z M137.97,346.41c0-1.75-0.79-2.62-2.02-2.62c-1.16,0-2.21,0.98-2.35,2.62H137.97z"
					/>
			</g>
		</g>
	</g>
	<g class="st0">
		<path class="st19" d="M689.26,55.77h-37.17c-5.31,0-9.61-4.3-9.61-9.61v0c0-5.31,4.3-9.61,9.61-9.61h37.17
			c5.31,0,9.61,4.3,9.61,9.61v0C698.87,51.47,694.57,55.77,689.26,55.77z"/>
		<g class="st17">
			<g>
				<g>
					<path class="st18" d="M367.54,48.02l0.35-0.38c0.57,0.65,1.4,1.07,2.32,1.07c1.21,0,1.97-0.65,1.97-1.59
						c0-0.99-0.64-1.3-1.42-1.65l-1.2-0.54c-0.69-0.3-1.6-0.79-1.6-1.97c0-1.15,0.98-1.95,2.3-1.95c0.95,0,1.72,0.43,2.2,0.95
						l-0.32,0.37c-0.46-0.49-1.09-0.81-1.88-0.81c-1.04,0-1.74,0.56-1.74,1.41c0,0.92,0.79,1.27,1.37,1.52l1.2,0.53
						c0.89,0.39,1.66,0.88,1.66,2.09c0,1.21-1,2.13-2.53,2.13C369.05,49.21,368.16,48.72,367.54,48.02z"/>
					<path class="st18" d="M373.85,46.2c0-1.88,1.22-3.03,2.51-3.03c1.36,0,2.2,0.97,2.2,2.67c0,0.14,0,0.29-0.03,0.43h-4.14
						c0.02,1.45,0.87,2.49,2.17,2.49c0.62,0,1.12-0.21,1.55-0.51l0.22,0.4c-0.45,0.28-0.97,0.57-1.82,0.57
						C375.05,49.21,373.85,48.08,373.85,46.2z M378.07,45.82c0-1.47-0.67-2.2-1.7-2.2c-0.97,0-1.85,0.82-1.97,2.2H378.07z"/>
					<path class="st18" d="M380.13,43.31h0.45l0.06,1.07h0.03c0.39-0.71,0.95-1.22,1.64-1.22c0.21,0,0.38,0.03,0.57,0.12l-0.12,0.48
						c-0.19-0.07-0.3-0.1-0.52-0.1c-0.52,0-1.13,0.39-1.57,1.48v3.92h-0.53V43.31z"/>
					<path class="st18" d="M382.98,43.31h0.57l1.3,3.61c0.19,0.56,0.4,1.14,0.58,1.65h0.05c0.19-0.52,0.4-1.1,0.58-1.65l1.29-3.61
						h0.54l-2.13,5.76h-0.63L382.98,43.31z"/>
					<path class="st18" d="M388.94,41.44c0-0.3,0.22-0.47,0.48-0.47c0.26,0,0.48,0.17,0.48,0.47c0,0.28-0.22,0.47-0.48,0.47
						C389.16,41.91,388.94,41.72,388.94,41.44z M389.15,43.31h0.53v5.76h-0.53V43.31z"/>
					<path class="st18" d="M391.41,46.2c0-1.93,1.23-3.03,2.63-3.03c0.78,0,1.29,0.35,1.69,0.71l-0.31,0.37
						c-0.37-0.35-0.8-0.61-1.36-0.61c-1.18,0-2.09,1.05-2.09,2.57c0,1.52,0.83,2.54,2.08,2.54c0.62,0,1.15-0.3,1.54-0.66l0.27,0.37
						c-0.49,0.44-1.11,0.76-1.84,0.76C392.53,49.21,391.41,48.1,391.41,46.2z"/>
					<path class="st18" d="M396.8,46.2c0-1.88,1.22-3.03,2.51-3.03c1.36,0,2.2,0.97,2.2,2.67c0,0.14,0,0.29-0.03,0.43h-4.14
						c0.02,1.45,0.87,2.49,2.17,2.49c0.62,0,1.12-0.21,1.55-0.51l0.22,0.4c-0.45,0.28-0.97,0.57-1.82,0.57
						C397.99,49.21,396.8,48.08,396.8,46.2z M401.01,45.82c0-1.47-0.67-2.2-1.7-2.2c-0.97,0-1.85,0.82-1.97,2.2H401.01z"/>
					<path class="st18" d="M402.36,48.41l0.31-0.39c0.49,0.41,1.01,0.73,1.83,0.73c0.91,0,1.38-0.53,1.38-1.14
						c0-0.72-0.75-1.04-1.41-1.28c-0.87-0.31-1.83-0.66-1.83-1.65c0-0.83,0.66-1.53,1.86-1.53c0.62,0,1.23,0.26,1.65,0.6l-0.29,0.38
						c-0.39-0.29-0.8-0.53-1.38-0.53c-0.9,0-1.3,0.52-1.3,1.05c0,0.66,0.68,0.91,1.37,1.17c0.89,0.34,1.88,0.63,1.88,1.76
						c0,0.87-0.69,1.62-1.94,1.62C403.62,49.21,402.88,48.85,402.36,48.41z"/>
				</g>
			</g>
		</g>
		<g class="st17">
			<g>
				<g>
					<path class="st18" d="M444.68,41.16h0.55l2.79,7.9h-0.59l-1.58-4.65c-0.32-0.94-0.6-1.77-0.88-2.73h-0.05
						c-0.28,0.96-0.55,1.79-0.88,2.73l-1.6,4.65h-0.56L444.68,41.16z M443.17,45.89h3.54v0.46h-3.54V45.89z"/>
					<path class="st18" d="M449.74,48.48h-0.03l-0.06,0.58h-0.44v-8.63h0.53v2.5l-0.03,1.12c0.58-0.49,1.28-0.9,1.98-0.9
						c1.54,0,2.31,1.16,2.31,2.94c0,1.96-1.18,3.11-2.54,3.11C450.92,49.21,450.29,48.92,449.74,48.48z M453.45,46.1
						c0-1.42-0.5-2.47-1.83-2.47c-0.57,0-1.2,0.34-1.87,0.95V48c0.63,0.54,1.26,0.74,1.7,0.74
						C452.61,48.74,453.45,47.66,453.45,46.1z"/>
					<path class="st18" d="M455.23,46.2c0-1.93,1.2-3.03,2.59-3.03s2.59,1.11,2.59,3.03c0,1.9-1.2,3.01-2.59,3.01
						S455.23,48.1,455.23,46.2z M459.85,46.2c0-1.52-0.87-2.57-2.03-2.57s-2.03,1.05-2.03,2.57c0,1.52,0.87,2.54,2.03,2.54
						S459.85,47.71,459.85,46.2z"/>
					<path class="st18" d="M462.05,47v-3.69h0.53v3.62c0,1.22,0.39,1.8,1.31,1.8c0.69,0,1.18-0.36,1.86-1.18v-4.25h0.53v5.76h-0.45
						l-0.06-0.96h-0.03c-0.57,0.66-1.16,1.11-1.96,1.11C462.6,49.21,462.05,48.49,462.05,47z"/>
					<path class="st18" d="M468.62,47.47v-3.71h-0.9v-0.41l0.91-0.05l0.07-1.67h0.45v1.67h1.67v0.46h-1.67v3.75
						c0,0.74,0.18,1.23,0.98,1.23c0.21,0,0.51-0.09,0.72-0.18l0.14,0.43c-0.33,0.12-0.7,0.22-0.94,0.22
						C468.95,49.21,468.62,48.51,468.62,47.47z"/>
					<path class="st18" d="M474.67,46.03v-4.87h0.55v4.81c0,2.1,0.99,2.74,2.1,2.74c1.14,0,2.15-0.63,2.15-2.74v-4.81h0.52v4.87
						c0,2.47-1.31,3.18-2.67,3.18S474.67,48.5,474.67,46.03z"/>
					<path class="st18" d="M481.52,48.41l0.31-0.39c0.49,0.41,1.01,0.73,1.83,0.73c0.91,0,1.38-0.53,1.38-1.14
						c0-0.72-0.75-1.04-1.41-1.28c-0.87-0.31-1.83-0.66-1.83-1.65c0-0.83,0.66-1.53,1.86-1.53c0.62,0,1.23,0.26,1.65,0.6l-0.29,0.38
						c-0.39-0.29-0.8-0.53-1.38-0.53c-0.9,0-1.3,0.52-1.3,1.05c0,0.66,0.68,0.91,1.37,1.17c0.89,0.34,1.88,0.63,1.88,1.76
						c0,0.87-0.69,1.62-1.94,1.62C482.78,49.21,482.04,48.85,481.52,48.41z"/>
				</g>
			</g>
		</g>
		<g class="st17">
			<g>
				<g>
					<path class="st18" d="M561.85,45.1c0-2.51,1.37-4.08,3.38-4.08c0.92,0,1.63,0.46,2.06,0.94l-0.32,0.37
						c-0.43-0.49-1-0.81-1.73-0.81c-1.73,0-2.8,1.38-2.8,3.57c0,2.2,1.06,3.62,2.76,3.62c0.82,0,1.42-0.33,2-0.97l0.32,0.35
						c-0.61,0.7-1.32,1.13-2.35,1.13C563.21,49.21,561.85,47.61,561.85,45.1z"/>
					<path class="st18" d="M568.58,46.2c0-1.93,1.2-3.03,2.59-3.03s2.59,1.11,2.59,3.03c0,1.9-1.2,3.01-2.59,3.01
						S568.58,48.1,568.58,46.2z M573.2,46.2c0-1.52-0.87-2.57-2.03-2.57s-2.03,1.05-2.03,2.57c0,1.52,0.87,2.54,2.03,2.54
						S573.2,47.71,573.2,46.2z"/>
					<path class="st18" d="M575.49,43.31h0.45L576,44.2h0.03c0.59-0.59,1.19-1.04,1.98-1.04c1.19,0,1.74,0.72,1.74,2.21v3.69h-0.53
						v-3.62c0-1.22-0.39-1.8-1.31-1.8c-0.69,0-1.18,0.36-1.88,1.08v4.34h-0.53V43.31z"/>
					<path class="st18" d="M582.01,47.47v-3.71h-0.9v-0.41l0.91-0.05l0.07-1.67h0.45v1.67h1.67v0.46h-1.67v3.75
						c0,0.74,0.18,1.23,0.98,1.23c0.21,0,0.51-0.09,0.72-0.18l0.14,0.43c-0.33,0.12-0.7,0.22-0.94,0.22
						C582.33,49.21,582.01,48.51,582.01,47.47z"/>
					<path class="st18" d="M585.2,47.63c0-1.28,1.15-1.89,3.72-2.17c0.02-0.89-0.23-1.83-1.36-1.83c-0.78,0-1.45,0.38-1.83,0.68
						l-0.24-0.39c0.41-0.29,1.21-0.75,2.14-0.75c1.37,0,1.83,0.99,1.83,2.22v3.68H589l-0.06-0.75h-0.03
						c-0.59,0.48-1.29,0.89-2.04,0.89C585.96,49.21,585.2,48.71,585.2,47.63z M588.92,47.82v-1.96c-2.37,0.27-3.17,0.82-3.17,1.74
						c0,0.83,0.56,1.14,1.22,1.14C587.63,48.75,588.21,48.43,588.92,47.82z"/>
					<path class="st18" d="M591.02,46.2c0-1.93,1.23-3.03,2.63-3.03c0.78,0,1.29,0.35,1.69,0.71l-0.31,0.37
						c-0.37-0.35-0.8-0.61-1.36-0.61c-1.18,0-2.09,1.05-2.09,2.57c0,1.52,0.83,2.54,2.08,2.54c0.62,0,1.15-0.3,1.54-0.66l0.27,0.37
						c-0.49,0.44-1.11,0.76-1.84,0.76C592.15,49.21,591.02,48.1,591.02,46.2z"/>
					<path class="st18" d="M597.03,47.47v-3.71h-0.9v-0.41l0.91-0.05l0.07-1.67h0.45v1.67h1.67v0.46h-1.67v3.75
						c0,0.74,0.18,1.23,0.98,1.23c0.21,0,0.51-0.09,0.72-0.18l0.14,0.43c-0.33,0.12-0.7,0.22-0.94,0.22
						C597.35,49.21,597.03,48.51,597.03,47.47z"/>
					<path class="st18" d="M602.95,47v-3.69h0.53v3.62c0,1.22,0.39,1.8,1.31,1.8c0.69,0,1.18-0.36,1.86-1.18v-4.25h0.53v5.76h-0.45
						l-0.06-0.96h-0.03c-0.57,0.66-1.16,1.11-1.96,1.11C603.5,49.21,602.95,48.49,602.95,47z"/>
					<path class="st18" d="M608.67,48.41l0.31-0.39c0.49,0.41,1.01,0.73,1.83,0.73c0.91,0,1.38-0.53,1.38-1.14
						c0-0.72-0.75-1.04-1.41-1.28c-0.87-0.31-1.83-0.66-1.83-1.65c0-0.83,0.66-1.53,1.86-1.53c0.62,0,1.23,0.26,1.65,0.6l-0.29,0.38
						c-0.39-0.29-0.8-0.53-1.38-0.53c-0.9,0-1.3,0.52-1.3,1.05c0,0.66,0.68,0.91,1.37,1.17c0.89,0.34,1.88,0.63,1.88,1.76
						c0,0.87-0.69,1.62-1.94,1.62C609.93,49.21,609.19,48.85,608.67,48.41z"/>
				</g>
			</g>
		</g>
		<g class="st17">
			<g>
				<path class="st14" d="M658.86,41.45h0.53v3.34h4.07v-3.34H664v7.61h-0.53v-3.81h-4.07v3.81h-0.53V41.45z"/>
				<path class="st14" d="M665.72,46.3c0-1.85,1.16-2.92,2.49-2.92s2.49,1.07,2.49,2.92c0,1.83-1.16,2.9-2.49,2.9
					S665.72,48.14,665.72,46.3z M670.16,46.3c0-1.46-0.83-2.47-1.95-2.47c-1.12,0-1.96,1.01-1.96,2.47c0,1.46,0.83,2.45,1.96,2.45
					C669.33,48.75,670.16,47.76,670.16,46.3z"/>
				<path class="st14" d="M672.37,43.52h0.43l0.06,0.86h0.03c0.5-0.56,1.13-1,1.75-1c0.89,0,1.33,0.45,1.53,1.13
					c0.63-0.69,1.24-1.13,1.88-1.13c1.1,0,1.66,0.7,1.66,2.13v3.56h-0.51v-3.49c0-1.18-0.39-1.73-1.24-1.73
					c-0.52,0-1.05,0.35-1.66,1.04v4.18h-0.51v-3.49c0-1.18-0.39-1.73-1.24-1.73c-0.5,0-1.05,0.35-1.66,1.04v4.18h-0.51V43.52z"/>
				<path class="st14" d="M681.28,46.3c0-1.81,1.18-2.92,2.42-2.92c1.31,0,2.12,0.94,2.12,2.57c0,0.14,0,0.28-0.03,0.42h-3.99
					c0.02,1.4,0.84,2.4,2.09,2.4c0.6,0,1.07-0.2,1.49-0.49l0.21,0.39c-0.44,0.27-0.94,0.55-1.75,0.55
					C682.42,49.2,681.28,48.12,681.28,46.3z M685.34,45.94c0-1.42-0.64-2.12-1.64-2.12c-0.94,0-1.79,0.79-1.9,2.12H685.34z"/>
			</g>
		</g>
		<g class="st17">
			<g>
				<g>
					<path class="st18" d="M510.93,41.16h4.31v0.48h-3.76v3.15h3.17v0.48h-3.17v3.8h-0.55V41.16z"/>
					<path class="st18" d="M518.36,41.16h0.55l2.79,7.9h-0.59l-1.58-4.65c-0.32-0.94-0.6-1.77-0.88-2.73h-0.05
						c-0.28,0.96-0.55,1.79-0.88,2.73l-1.6,4.65h-0.56L518.36,41.16z M516.85,45.89h3.54v0.46h-3.54V45.89z"/>
					<path class="st18" d="M522.45,45.09c0-2.5,1.36-4.07,3.25-4.07s3.25,1.57,3.25,4.07c0,2.5-1.36,4.12-3.25,4.12
						S522.45,47.59,522.45,45.09z M528.38,45.09c0-2.19-1.07-3.57-2.68-3.57s-2.68,1.38-2.68,3.57c0,2.2,1.07,3.65,2.68,3.65
						S528.38,47.29,528.38,45.09z M525.35,49.06l0.6-0.02c0.33,0.89,1.08,1.39,2.12,1.39c0.36,0,0.6-0.05,0.8-0.1l0.12,0.47
						c-0.2,0.06-0.58,0.14-0.97,0.14C526.63,50.93,525.71,50.12,525.35,49.06z"/>
				</g>
			</g>
		</g>
	</g>
</g>
<g id="DESIGNED" class="st0">
	<g class="st17">
		<g id="XMLID_319_">
			<g id="XMLID_338_">
				<path id="XMLID_346_" class="st20" d="M385.1,465.47c-0.43,0.44-0.8,0.93-1.11,1.45l-0.47-0.24c-0.07-0.3-0.35-0.5-0.66-0.47
					c-0.33,0.04-0.57,0.34-0.53,0.67c0.04,0.33,0.34,0.57,0.67,0.53c0.07-0.01,0.13-0.03,0.18-0.05l0.45,0.23
					c-0.25,0.55-0.43,1.14-0.54,1.74l0.75,0.13c0.23-1.31,0.85-2.51,1.79-3.47L385.1,465.47z"/>
				<path id="XMLID_345_" class="st20" d="M390.59,463.16c-0.17,0-0.34,0.01-0.51,0.02l-0.07-0.63c0.19-0.15,0.3-0.39,0.27-0.64
					c-0.05-0.39-0.4-0.67-0.8-0.63c-0.39,0.05-0.67,0.4-0.63,0.8c0.03,0.25,0.19,0.46,0.4,0.56l0.07,0.62
					c-0.71,0.12-1.4,0.33-2.06,0.65l0.33,0.68c0.93-0.45,1.94-0.67,3-0.67c0.5,0,0.99,0.05,1.48,0.16l0.16-0.74
					C391.69,463.22,391.14,463.16,390.59,463.16z"/>
				<path id="XMLID_344_" class="st20" d="M397.19,465.71c0.33-0.04,0.57-0.34,0.53-0.67c-0.04-0.33-0.34-0.57-0.67-0.53
					c-0.31,0.04-0.54,0.3-0.53,0.61l-0.42,0.36c-0.42-0.43-0.89-0.81-1.41-1.14l-0.4,0.64c1.13,0.71,2.02,1.73,2.56,2.93l0.69-0.31
					c-0.25-0.55-0.57-1.07-0.94-1.55l0.4-0.35C397.06,465.72,397.13,465.72,397.19,465.71z"/>
				<path id="XMLID_343_" class="st20" d="M390.04,473.37c-0.39,0.02-0.77,0.03-1.16,0.03c-0.88,0-1.73-0.06-2.48-0.18
					c-0.39-0.06-0.85-0.15-1.27-0.29c1.05,1.86,3.07,3.12,5.39,3.12c2.86,0,5.26-1.92,5.95-4.5c-0.68,0.45-1.51,0.83-2.46,1.12
					C392.84,473.05,391.46,473.29,390.04,473.37z"/>
				<path id="XMLID_339_" class="st20" d="M390.59,464.68c-3.35,0-6.08,2.67-6.08,5.94c0,0.43,0.05,0.85,0.14,1.26
					c0.67,0.48,2.71,0.89,5.35,0.73c2.88-0.17,5.3-0.96,6.67-2.16c-0.01-0.19-0.02-0.39-0.05-0.58
					C396.24,466.91,393.65,464.68,390.59,464.68z M388.43,471.19c-1.02,0-1.85-0.83-1.85-1.85c0-1.02,0.83-1.85,1.85-1.85
					c1.02,0,1.85,0.83,1.85,1.85C390.28,470.36,389.45,471.19,388.43,471.19z M393.17,470.29c-0.75,0-1.36-0.61-1.36-1.36
					s0.61-1.36,1.36-1.36c0.75,0,1.36,0.61,1.36,1.36S393.92,470.29,393.17,470.29z"/>
			</g>
			<path id="XMLID_336_" class="st20" d="M406.6,466.55c-0.29-0.12-0.81-0.31-1.38-0.24c-0.55,0.07-0.84,0.34-0.84,1.01v0.87h2.23
				v1.72h-2.23v5.45h-1.93v-5.45h-1.34v-1.72h1.34v-0.89c0-1.68,0.9-2.78,2.57-2.78c0.64,0,1.16,0.12,1.59,0.31L406.6,466.55z"/>
			<path id="XMLID_334_" class="st20" d="M411.3,469.88c-0.18-0.03-0.36-0.05-0.53-0.05c-0.9,0-1.51,0.55-1.51,1.61v3.91h-1.93
				v-7.17h1.87v0.78c0.45-0.67,1.14-0.98,2.02-0.98c0.41,0,0.85,0.13,1.09,0.34L411.3,469.88z"/>
			<path id="XMLID_331_" class="st20" d="M418.97,471.76c0,0.22-0.01,0.49-0.04,0.65h-5.08c0.21,1.04,0.93,1.49,1.84,1.49
				c0.62,0,1.3-0.25,1.81-0.69l1.13,1.24c-0.81,0.75-1.85,1.09-3.06,1.09c-2.2,0-3.72-1.5-3.72-3.75c0-2.26,1.48-3.8,3.63-3.8
				C417.54,467.99,418.96,469.52,418.97,471.76z M413.85,471.09h3.18c-0.18-0.92-0.73-1.44-1.56-1.44
				C414.55,469.65,414.02,470.2,413.85,471.09z"/>
			<path id="XMLID_328_" class="st20" d="M426.62,471.76c0,0.22-0.02,0.49-0.04,0.65h-5.08c0.21,1.04,0.93,1.49,1.84,1.49
				c0.62,0,1.3-0.25,1.81-0.69l1.13,1.24c-0.81,0.75-1.85,1.09-3.06,1.09c-2.2,0-3.72-1.5-3.72-3.75c0-2.26,1.48-3.8,3.63-3.8
				C425.2,467.99,426.61,469.52,426.62,471.76z M421.5,471.09h3.18c-0.18-0.92-0.73-1.44-1.56-1.44
				C422.21,469.65,421.67,470.2,421.5,471.09z"/>
			<path id="XMLID_325_" class="st20" d="M434.96,471.76c0,2.15-1.5,3.77-3.47,3.77c-0.96,0-1.64-0.38-2.11-0.93v3.71h-1.92v-10.13
				h1.89v0.79c0.47-0.58,1.15-0.98,2.14-0.98C433.47,467.99,434.96,469.61,434.96,471.76z M429.29,471.76
				c0,1.13,0.75,1.98,1.84,1.98c1.14,0,1.85-0.88,1.85-1.98c0-1.1-0.71-1.98-1.85-1.98C430.03,469.79,429.29,470.63,429.29,471.76z"
				/>
			<path id="XMLID_322_" class="st20" d="M438.07,465.84c0,0.7-0.54,1.23-1.24,1.23c-0.7,0-1.23-0.53-1.23-1.23
				c0-0.7,0.53-1.24,1.23-1.24C437.53,464.59,438.07,465.14,438.07,465.84z M437.81,475.35h-1.93v-7.17h1.93V475.35z"/>
			<path id="XMLID_320_" class="st20" d="M441.03,470.74l2.7-2.55h2.37l-3.48,3.38l3.5,3.8h-2.38l-2.72-2.9v2.9h-1.93V464.7h1.93
				V470.74z"/>
		</g>
		<g>
			<path class="st20" d="M309.41,475.29v-1.05c-0.53,0.72-1.39,1.23-2.39,1.23c-1.85,0-3.15-1.41-3.15-3.71
				c0-2.26,1.29-3.72,3.15-3.72c0.95,0,1.82,0.47,2.39,1.25v-3.76h1.1v9.77H309.41z M309.41,473.37v-3.21
				c-0.4-0.62-1.24-1.14-2.12-1.14c-1.42,0-2.27,1.17-2.27,2.74c0,1.57,0.85,2.72,2.27,2.72
				C308.17,474.48,309.02,473.99,309.41,473.37z"/>
			<path class="st20" d="M311.93,471.74c0-2.05,1.46-3.71,3.49-3.71c2.14,0,3.4,1.67,3.4,3.79v0.28h-5.73
				c0.09,1.33,1.03,2.45,2.55,2.45c0.81,0,1.63-0.32,2.18-0.89l0.53,0.72c-0.7,0.7-1.65,1.08-2.81,1.08
				C313.44,475.46,311.93,473.96,311.93,471.74z M315.4,468.95c-1.51,0-2.26,1.27-2.31,2.36h4.64
				C317.72,470.25,317.01,468.95,315.4,468.95z"/>
			<path class="st20" d="M319.61,474.35l0.57-0.79c0.47,0.54,1.36,1.01,2.33,1.01c1.08,0,1.67-0.51,1.67-1.22
				c0-1.71-4.38-0.66-4.38-3.28c0-1.1,0.95-2.04,2.64-2.04c1.2,0,2.05,0.45,2.62,1.03l-0.51,0.76c-0.42-0.51-1.2-0.89-2.11-0.89
				c-0.97,0-1.57,0.48-1.57,1.11c0,1.55,4.38,0.53,4.38,3.28c0,1.19-0.95,2.14-2.78,2.14C321.31,475.46,320.32,475.11,319.61,474.35
				z"/>
			<path class="st20" d="M326.48,466.47c0-0.41,0.34-0.75,0.73-0.75c0.41,0,0.75,0.34,0.75,0.75c0,0.41-0.34,0.73-0.75,0.73
				C326.81,467.2,326.48,466.88,326.48,466.47z M326.67,475.29v-7.07h1.1v7.07H326.67z"/>
			<path class="st20" d="M329.58,477.11l0.56-0.82c0.59,0.7,1.29,0.97,2.3,0.97c1.17,0,2.27-0.57,2.27-2.12v-1.01
				c-0.51,0.72-1.38,1.26-2.37,1.26c-1.85,0-3.15-1.38-3.15-3.66c0-2.27,1.29-3.68,3.15-3.68c0.95,0,1.8,0.47,2.37,1.25v-1.07h1.1
				v6.87c0,2.34-1.64,3.08-3.37,3.08C331.24,478.16,330.42,477.93,329.58,477.11z M334.71,473.25v-3.09
				c-0.38-0.62-1.23-1.14-2.11-1.14c-1.42,0-2.27,1.13-2.27,2.7c0,1.55,0.85,2.7,2.27,2.7
				C333.48,474.41,334.33,473.87,334.71,473.25z"/>
			<path class="st20" d="M342.41,475.29v-4.63c0-1.24-0.63-1.64-1.58-1.64c-0.86,0-1.68,0.53-2.09,1.1v5.17h-1.1v-7.07h1.1v1.03
				c0.5-0.59,1.46-1.2,2.52-1.2c1.48,0,2.26,0.75,2.26,2.29v4.97H342.41z"/>
			<path class="st20" d="M344.93,471.74c0-2.05,1.46-3.71,3.49-3.71c2.14,0,3.4,1.67,3.4,3.79v0.28h-5.73
				c0.09,1.33,1.03,2.45,2.55,2.45c0.81,0,1.63-0.32,2.18-0.89l0.53,0.72c-0.7,0.7-1.66,1.08-2.81,1.08
				C346.44,475.46,344.93,473.96,344.93,471.74z M348.4,468.95c-1.51,0-2.26,1.27-2.31,2.36h4.64
				C350.72,470.25,350.02,468.95,348.4,468.95z"/>
			<path class="st20" d="M358.35,475.29v-1.05c-0.53,0.72-1.39,1.23-2.39,1.23c-1.85,0-3.15-1.41-3.15-3.71
				c0-2.26,1.29-3.72,3.15-3.72c0.95,0,1.82,0.47,2.39,1.25v-3.76h1.1v9.77H358.35z M358.35,473.37v-3.21
				c-0.4-0.62-1.25-1.14-2.12-1.14c-1.42,0-2.27,1.17-2.27,2.74c0,1.57,0.85,2.72,2.27,2.72
				C357.1,474.48,357.95,473.99,358.35,473.37z"/>
			<path class="st20" d="M364.69,475.29v-9.77h1.1v3.76c0.57-0.78,1.42-1.25,2.39-1.25c1.85,0,3.15,1.46,3.15,3.72
				c0,2.3-1.3,3.71-3.15,3.71c-1,0-1.86-0.51-2.39-1.23v1.05H364.69z M367.9,474.48c1.44,0,2.29-1.16,2.29-2.72
				c0-1.57-0.85-2.74-2.29-2.74c-0.86,0-1.73,0.53-2.11,1.14v3.21C366.17,473.99,367.04,474.48,367.9,474.48z"/>
			<path class="st20" d="M372.53,477.06c0.16,0.07,0.42,0.12,0.6,0.12c0.48,0,0.81-0.16,1.05-0.75l0.47-1.07l-2.96-7.15h1.19
				l2.36,5.8l2.34-5.8h1.2l-3.54,8.51c-0.42,1.03-1.14,1.42-2.08,1.44c-0.23,0-0.6-0.04-0.81-0.1L372.53,477.06z"/>
		</g>
	</g>
</g>
</svg>
