<svg enable-background="new 0 0 750 500" viewBox="0 0 750 500" xmlns="http://www.w3.org/2000/svg"><path d="m339.08 113.73s35.9 154.44-71.54 284.27l-222.39 5.58c-21.55.54-39.31-16.78-39.31-38.34v-213.16c0-21.18 17.17-38.35 38.35-38.35z" fill="#003db5"/><ellipse cx="230.3" cy="241.68" fill="none" rx="234.06" ry="120.91" stroke="#003db5" stroke-miterlimit="10" stroke-width=".9008" transform="matrix(.2367 -.9716 .9716 .2367 -59.0215 408.2301)"/><path d="m290.32 261.44c31.63-103.4 13.98-200.46-39.43-216.81-.03-.01-.06-.02-.09-.03-2.04-.62-1.88-3.57.23-3.89 8.52-1.27 16.87-.77 24.87 1.67 53.41 16.34 71.07 113.41 39.43 216.81-10.14 33.15-24.12 62.92-40.19 87.54-7.15 10.95-23.62.61-17.04-10.69 12.73-21.85 23.8-47.06 32.22-74.6z" fill="#003db5" opacity=".22"/><path d="m174.9 469.08c64.88 15.81 142.27-73.19 172.87-198.79s2.81-240.22-62.07-256.02c-5.98-1.46-12.06-2.02-18.21-1.75s112.2-7.41 145.51 86.27c0 0 57.02 144.91-53.11 307.67 0 0-53.99 81.73-117.41 81.14 0 0-52.04.36-90.85-29.44 7.11 5.17 14.88 8.88 23.27 10.92z" fill="#003db5"/><ellipse cx="380.04" cy="285.54" fill="#0d2a6e" rx="34.64" ry="19.28" transform="matrix(.3146 -.9492 .9492 .3146 -10.5677 556.4435)"/><path d="m375.46 276.04c3.61-10.62 14.79-16.97 25.62-14.08.08.02.16.04.23.06l201.82 55.58c.32.09.63.18.94.28 1.67.54 2.62 2.29 2.12 3.97l-14.25 48.16c-.48 1.64-2.18 2.65-3.83 2.2-.01 0-.02-.01-.03-.01l-201.82-55.58c-.09-.02-.18-.05-.27-.08-12.13-3.47-18.66-16.66-14.6-28.6z" fill="#003397"/><ellipse cx="600.63" cy="346.62" fill="#c732fc" rx="29" ry="16.14" transform="matrix(.3146 -.9492 .9492 .3146 82.6426 807.6971)"/><ellipse cx="230.54" cy="242.64" fill="#fff" opacity=".07" rx="233.17" ry="120.45" stroke="#fff" stroke-miterlimit="10" stroke-width="3.5897" transform="matrix(.2367 -.9716 .9716 .2367 -59.78 409.1931)"/><path d="m175.33 176.68h-134.9" style="fill:none;stroke:#fff;stroke-width:1.5954;stroke-linecap:round;stroke-linejoin:round;stroke-miterlimit:10"/><path d="m175.33 195.12h-134.9" style="fill:none;stroke:#fff;stroke-width:1.5954;stroke-linecap:round;stroke-linejoin:round;stroke-miterlimit:10"/><path d="m175.33 213.55h-134.9" style="fill:none;stroke:#fff;stroke-width:1.5954;stroke-linecap:round;stroke-linejoin:round;stroke-miterlimit:10"/><path d="m175.33 231.99h-134.9" style="fill:none;stroke:#fff;stroke-width:1.5954;stroke-linecap:round;stroke-linejoin:round;stroke-miterlimit:10"/><path d="m174.68 250.42h-134.9" style="fill:none;stroke:#fff;stroke-width:1.5954;stroke-linecap:round;stroke-linejoin:round;stroke-miterlimit:10"/><path d="m511.15 205.15h73.91c2.9 0 5.25-2.35 5.25-5.25v-8.36c0-2.9-2.35-5.25-5.25-5.25h-73.91c-2.9 0-5.25 2.35-5.25 5.25v8.36c0 2.9 2.35 5.25 5.25 5.25z" fill="#5dccfe"/><path d="m457.71 134.25h73.91c2.9 0 5.25-2.35 5.25-5.25v-8.36c0-2.9-2.35-5.25-5.25-5.25h-73.91c-2.9 0-5.25 2.35-5.25 5.25v8.36c0 2.9 2.35 5.25 5.25 5.25z" fill="#003db5"/><path d="m480.26 237.96h258.66c2.9 0 5.25-2.35 5.25-5.25v-8.36c0-2.9-2.35-5.25-5.25-5.25h-258.66c-2.9 0-5.25 2.35-5.25 5.25v8.36c0 2.9 2.35 5.25 5.25 5.25z" fill="#c732fc"/><path d="m447.62 174.42h188.45c2.48 0 4.5-2.01 4.5-4.5v-9.86c0-2.48-2.01-4.5-4.5-4.5h-188.45c-2.48 0-4.5 2.01-4.5 4.5v9.86c0 2.48 2.02 4.5 4.5 4.5z" fill="#216bfe"/><g fill="none"><path d="m627.81 164.99h-81.48" stroke="#fff" stroke-linecap="round" stroke-linejoin="round" stroke-miterlimit="10" stroke-width=".9637"/><path d="m525.62 164.99h-64.32" stroke="#fff" stroke-linecap="round" stroke-linejoin="round" stroke-miterlimit="10" stroke-width=".9637"/><path d="m526.83 124.83h-64.32" stroke="#fff" stroke-linecap="round" stroke-linejoin="round" stroke-miterlimit="10" stroke-width=".9637"/><path d="m735.36 228.54h-64.33" stroke="#fff" stroke-linecap="round" stroke-linejoin="round" stroke-miterlimit="10" stroke-width=".9637"/><path d="m580.27 195.72h-64.33" stroke="#fff" stroke-linecap="round" stroke-linejoin="round" stroke-miterlimit="10" stroke-width=".9637"/><path d="m659.4 228.54h-46.49" stroke="#fff" stroke-linecap="round" stroke-linejoin="round" stroke-miterlimit="10" stroke-width=".9637"/><path d="m560.19 228.54h-75.56" stroke="#fff" stroke-linecap="round" stroke-linejoin="round" stroke-miterlimit="10" stroke-width=".9637"/><path d="m605.67 228.54h-30.64" stroke="#fff" stroke-linecap="round" stroke-linejoin="round" stroke-miterlimit="10" stroke-width=".9637"/></g><path d="m205.46 259.48h73.19c6.38 0 11.55-5.17 11.55-11.55v-73.19c0-6.38-5.17-11.55-11.55-11.55h-73.19c-6.38 0-11.55 5.17-11.55 11.55v73.19c-.01 6.38 5.17 11.55 11.55 11.55z" fill="#5dccfe"/><path d="m45.4 317.12h239.33c2.74 0 4.97-2.23 4.97-4.97v-21.64c0-2.74-2.23-4.97-4.97-4.97h-239.33c-2.74 0-4.97 2.23-4.97 4.97v21.64c0 2.74 2.23 4.97 4.97 4.97z" fill="#c732fc"/><path d="m255.12 200.54c-3.15-3.15-7.32-4.61-11.45-4.44v-12.75c7.38-.17 14.82 2.55 20.45 8.18 10.93 10.93 10.93 28.66 0 39.59-5.63 5.63-13.07 8.36-20.45 8.18v-12.75c4.12.18 8.3-1.29 11.45-4.44 5.96-5.95 5.96-15.61 0-21.57z" fill="#fff"/><path d="m229.11 210.62c-.19 4.14 1.27 8.34 4.43 11.5 2.81 2.81 6.45 4.28 10.13 4.44v12.75c-6.94-.16-13.84-2.88-19.14-8.18-5.65-5.65-8.37-13.11-8.18-20.5h12.76z" fill="#fdaf33"/><path d="m224.54 191.53c5.3-5.3 12.19-8.02 19.14-8.18v12.75c-3.68.16-7.32 1.63-10.13 4.44-2.8 2.8-4.27 6.41-4.43 10.08h-12.75c.16-6.93 2.88-13.8 8.17-19.09z" fill="#c732fc"/></svg>