<?xml version="1.0" standalone="no"?>
<!DOCTYPE svg PUBLIC "-//W3C//DTD SVG 20010904//EN"
 "http://www.w3.org/TR/2001/REC-SVG-20010904/DTD/svg10.dtd">
<svg version="1.0" xmlns="http://www.w3.org/2000/svg"
 width="64.000000pt" height="64.000000pt" viewBox="0 0 64.000000 64.000000"
 preserveAspectRatio="xMidYMid meet">

<g transform="translate(0.000000,64.000000) scale(0.100000,-0.100000)"
fill="#000000" stroke="none">
<path d="M480 610 c-26 -26 -26 -70 1 -104 l20 -26 -23 0 c-45 0 -63 -43 -32
-74 11 -12 35 -16 88 -16 76 0 96 9 96 45 0 28 -18 45 -48 45 l-24 0 27 32
c20 23 25 38 20 57 -13 57 -85 81 -125 41z m90 -10 c39 -39 14 -100 -41 -100
-29 0 -59 31 -59 61 0 19 45 59 66 59 8 0 23 -9 34 -20z m40 -145 c7 -8 10
-22 6 -30 -4 -12 -23 -15 -86 -15 -77 0 -80 1 -80 23 0 34 6 37 80 37 48 0 71
-4 80 -15z"/>
<path d="M452 368 c-17 -17 -17 -329 0 -346 14 -14 136 -16 158 -2 12 7 16 39
18 160 4 194 1 200 -96 200 -40 0 -73 -5 -80 -12z m146 -10 c17 -17 17 -309 0
-326 -16 -16 -120 -16 -136 0 -17 17 -17 309 0 326 7 7 37 12 68 12 31 0 61
-5 68 -12z"/>
<path d="M236 294 c-13 -12 -16 -39 -16 -130 0 -64 5 -124 10 -135 9 -16 22
-19 83 -19 44 0 78 5 85 12 8 8 12 53 12 134 0 149 -3 154 -95 154 -44 0 -68
-5 -79 -16z m132 0 c21 -6 22 -10 22 -134 0 -143 2 -140 -75 -140 -76 0 -75
-3 -75 136 0 107 2 124 18 133 19 12 75 14 110 5z"/>
<path d="M28 229 c-10 -5 -18 -17 -18 -26 0 -15 1 -15 13 1 10 14 25 16 82 14
l70 -3 3 -83 c2 -53 -1 -89 -9 -98 -15 -18 -122 -19 -137 -1 -6 7 -12 35 -15
62 l-3 50 -2 -55 c-1 -33 3 -61 10 -68 16 -16 140 -16 156 0 8 8 12 46 12 105
0 81 -2 94 -19 103 -25 13 -121 13 -143 -1z"/>
<path d="M11 164 c0 -11 3 -14 6 -6 3 7 2 16 -1 19 -3 4 -6 -2 -5 -13z"/>
</g>
</svg>
