<svg xmlns="http://www.w3.org/2000/svg" width="15.134" height="9.323" viewBox="0 0 15.134 9.323">
  <path id="Path_10462" data-name="Path 10462" d="M-1849.395,413.213h-6.267a1.057,1.057,0,0,1-.279.717,1.058,1.058,0,0,1-.783.345,1.062,1.062,0,0,1-1.061-1.022c0-.013,0-.026,0-.04h-.6a4.534,4.534,0,0,0-4.355,3.275,1.35,1.35,0,0,0-.283-.03,1.348,1.348,0,0,0-1.348,1.348,1.348,1.348,0,0,0,1.348,1.348,1.35,1.35,0,0,0,.318-.038,4.534,4.534,0,0,0,4.32,3.16,4.531,4.531,0,0,0,4.531-4.532,4.576,4.576,0,0,0-.054-.7l4.515-1.671Z" transform="translate(1871.459 -380.612) rotate(1)" fill="#63d1a3"/>
</svg>
